<?xml version="1.0" standalone="no"?>
<!DOCTYPE svg PUBLIC "-//W3C//DTD SVG 1.1//EN" "http://www.w3.org/Graphics/SVG/1.1/DTD/svg11.dtd" >
<svg>
<metadata>
Created by FontForge 20090622 at Thu Sep  7 03:11:37 2017
 By deploy user
</metadata>
<defs>
<font id="seoulNamsan" horiz-adv-x="900" >
  <font-face 
    font-family="seoulNamsan"
    font-weight="400"
    font-stretch="normal"
    units-per-em="1000"
    panose-1="2 0 5 3 0 0 0 0 0 0"
    ascent="800"
    descent="-200"
    bbox="-46 -211 948 812"
    underline-thickness="50"
    underline-position="-100"
  />
<missing-glyph horiz-adv-x="1000" 
 />
    <glyph glyph-name=".notdef" horiz-adv-x="1000" 
 />
    <glyph glyph-name=".null" horiz-adv-x="0" 
 />
    <glyph glyph-name="nonmarkingreturn" horiz-adv-x="333" 
 />
    <glyph glyph-name="Identity.1" horiz-adv-x="330" 
 />
    <glyph glyph-name="Identity.2" horiz-adv-x="615" 
d="M623 -2l-259 719h-117l-257 -719h111l78 211h250l73 -211h121zM396 305h-186l95 283h4z" />
    <glyph glyph-name="Identity.3" horiz-adv-x="595" 
d="M563 205q0 38 -13 68.5t-30.5 47.5t-42 29.5t-40 17t-31.5 7.5v5q19 6 36.5 14.5t40.5 25t36.5 45.5t13.5 65q0 92 -66.5 139t-165.5 47h-222v-719h222q55 0 98 9q76 20 120 69.5t44 129.5zM424 524q0 -51 -34 -75t-77 -28q-17 -2 -50 -2h-75v203h86q29 0 53 -3
q97 -13 97 -95zM451 207q-3 -99 -115 -114q-18 -2 -50 -2h-98v235h107q38 0 66 -10q90 -25 90 -109z" />
    <glyph glyph-name="Identity.4" horiz-adv-x="640" 
d="M611 495q-2 73 -19 102q-30 61 -91 95.5t-139 34.5q-157 0 -243.5 -104t-86.5 -254q0 -73 20 -139.5t59.5 -122t105.5 -89t150 -33.5q59 0 109.5 10.5t66 16.5t46.5 21v107q-93 -65 -203 -64q-72 1 -123.5 32.5t-75.5 80t-33.5 91.5t-9.5 85q0 125 61.5 198t155.5 73
q75 -2 105 -38q32 -35 32 -103h113z" />
    <glyph glyph-name="Identity.5" horiz-adv-x="655" 
d="M623 358q0 131 -50.5 212.5t-138.5 116.5q-67 29 -152 29h-204v-719h178q87 0 136 13q102 30 166.5 116t64.5 232zM515 358q1 -112 -45 -175t-108 -80q-32 -10 -105 -10h-69v527h60q57 0 109 -9q67 -12 112 -73.5t46 -179.5z" />
    <glyph glyph-name="Identity.6" horiz-adv-x="530" 
d="M498 -3v96h-311v232h289v96h-289v199h301v96h-411v-719h421z" />
    <glyph glyph-name="Identity.7" horiz-adv-x="495" 
d="M490 619v96h-412v-719h110v328h290v96h-290v199h302z" />
    <glyph glyph-name="Identity.8" horiz-adv-x="670" 
d="M610 496q0 112 -70.5 172t-177.5 60q-80 0 -144 -29.5t-104 -79.5t-61 -114t-21 -135q0 -73 20 -139.5t59.5 -122t105.5 -89t150 -33.5q56 0 104.5 9.5t65.5 16t47 19.5l24 4v350h-282v-98h172v-192q-54 -18 -112 -18q-59 1 -104 23t-70.5 53.5t-42 72.5t-21.5 74.5
t-5 65.5q0 125 62 198t156 73q61 -2 99 -34t37 -107h113z" />
    <glyph glyph-name="Identity.9" horiz-adv-x="660" 
d="M586 -3v719h-110v-298h-290v298h-110v-719h110v325h290v-325h110z" />
    <glyph glyph-name="Identity.10" horiz-adv-x="280" 
d="M195 -3v719h-113v-719h113z" />
    <glyph glyph-name="Identity.11" horiz-adv-x="370" 
d="M291 166v550h-110v-542q0 -77 -70 -89q-13 -2 -22 -2q-73 4 -113 19v-99q54 -15 111 -15q58 0 100 16t63.5 43.5t31 56.5t9.5 62z" />
    <glyph glyph-name="Identity.12" horiz-adv-x="580" 
d="M608 -3l-339 380l298 339h-125l-250 -289h-6v289h-108v-719h108v317h6l281 -317h135z" />
    <glyph glyph-name="Identity.13" horiz-adv-x="500" 
d="M512 -1v96h-323v621h-111v-717h434z" />
    <glyph glyph-name="Identity.14" horiz-adv-x="840" 
d="M761 -3v718h-150l-189 -579h-4l-191 579h-151v-718h102v559h3l187 -559h101l188 559h2v-559h102z" />
    <glyph glyph-name="Identity.15" horiz-adv-x="670" 
d="M593 -3v719h-106v-558h-3l-275 558h-132v-719h106v555h4l277 -555h129z" />
    <glyph glyph-name="Identity.16" horiz-adv-x="720" 
d="M688 358q0 163 -85 266t-243 103q-154 0 -241 -106.5t-87 -262.5q0 -164 86 -268t242 -104q84 0 148.5 30t103 82t57.5 117.5t19 142.5zM579 359q0 -126 -56 -205t-163 -79q-72 0 -123 41t-73 103t-22 139q0 122 60 200t158 78q107 0 163 -78t56 -199z" />
    <glyph glyph-name="Identity.17" horiz-adv-x="560" 
d="M548 502q0 60 -24 103.5t-65 66.5t-87.5 33t-100.5 10h-192v-719h108v623h83q68 0 116 -28t48 -89q0 -121 -153 -121h-58v-98h59q39 0 75.5 6.5t71.5 22.5t61 40t42 62.5t16 87.5z" />
    <glyph glyph-name="Identity.18" horiz-adv-x="740" 
d="M730 0v111q-63 -27 -142 -35q99 102 99 285q0 163 -85.5 266t-243.5 103q-154 0 -241 -106.5t-87 -262.5q0 -164 86 -268.5t242 -104.5q54 0 98 12h274zM578 362q0 -126 -56.5 -205t-163.5 -79q-72 0 -123 41t-73 103t-22 139q0 121 60 199.5t158 78.5q107 0 163.5 -78.5
t56.5 -198.5z" />
    <glyph glyph-name="Identity.19" horiz-adv-x="600" 
d="M564 -4l-33 175q-17 94 -90 157q106 53 106 180q0 49 -16 86.5t-42.5 60t-63.5 37t-74.5 20t-80.5 5.5h-192v-720h108v624h83q69 0 116 -26t47 -87q0 -117 -153 -117h-57v-96h58q24 0 36 1q78 -28 106 -162l29 -138h113z" />
    <glyph glyph-name="Identity.20" horiz-adv-x="525" 
d="M499 198q-1 32 -10 59.5t-20.5 44.5t-32 34t-34 25.5t-39 21.5t-34.5 19l-75 35q-6 4 -22.5 12.5t-23 12.5l-19 12t-18.5 14t-13 15t-9.5 19t-2.5 21q0 43 32 65.5t85 22.5q115 -5 190 -45v108q-124 33 -183 33q-110 0 -175.5 -48.5t-65.5 -143.5q0 -17 4.5 -33t10 -29
t18 -27l21 -23.5t26.5 -22.5t28 -19.5t31.5 -18l29.5 -15.5l31 -15t28 -14q5 -2 21 -10t22.5 -11.5t20 -11.5t20 -13.5t16 -15.5t13.5 -19.5t7.5 -22.5t3.5 -27q0 -56 -41.5 -81t-105.5 -25q-24 0 -47.5 2.5t-40.5 6t-37 9.5t-29.5 9.5l-25 9.5t-18.5 7v-107
q126 -32 188 -32q130 0 202.5 53.5t72.5 158.5z" />
    <glyph glyph-name="Identity.21" horiz-adv-x="510" 
d="M510 618v95h-510v-95h199v-624h110v624h201z" />
    <glyph glyph-name="Identity.22" horiz-adv-x="670" 
d="M597 267v448h-112v-446q0 -80 -36.5 -134.5t-117.5 -54.5q-43 0 -74 16t-46.5 44.5t-22.5 60t-7 68.5v446h-112v-448q0 -40 6 -76t24 -75t46 -67t76 -46t110 -18q61 0 109 18.5t77 47.5t47.5 67.5t25.5 74.5t7 74z" />
    <glyph glyph-name="Identity.23" horiz-adv-x="600" 
d="M611 715h-115l-191 -581l-8 -1l-191 582h-118l252 -719h120z" />
    <glyph glyph-name="Identity.24" horiz-adv-x="885" 
d="M858 716h-103l-99 -576h-2l-149 576h-119l-137 -578h-2l-112 578h-104l147 -719h125l143 573h3l149 -573h125z" />
    <glyph glyph-name="Identity.25" horiz-adv-x="570" 
d="M586 -3l-239 376l215 343h-122l-155 -245l-157 245h-123l217 -343l-239 -376h124l178 276l178 -276h123z" />
    <glyph glyph-name="Identity.26" horiz-adv-x="550" 
d="M574 715h-118l-178 -291l-176 291h-126l243 -395v-325h110v325z" />
    <glyph glyph-name="Identity.27" horiz-adv-x="540" 
d="M530 -3v96h-379l354 536v87h-470v-96h339l-356 -536v-87h512z" />
    <glyph glyph-name="Identity.28" horiz-adv-x="510" 
d="M453 -1v338q0 78 -50 127t-148 49q-97 0 -150.5 -48.5t-53.5 -117.5h112q0 39 25 59.5t66 20.5q58 0 78 -34q14 -24 14 -60v-28q-101 6 -181 -18q-53 -16 -90.5 -60t-37.5 -100q0 -61 46.5 -100t105.5 -39q108 0 156 65h1v-54h107zM346 194q0 -24 -8 -46
q-13 -32 -47.5 -52.5t-65.5 -20.5q-32 0 -53.5 15t-21.5 47t27 55t60 30q49 11 109 7v-35z" />
    <glyph glyph-name="Identity.29" horiz-adv-x="560" 
d="M531 249q0 51 -12 100q-42 161 -207 161q-33 0 -59.5 -11t-42 -29t-22.5 -30t-11 -24h-4v299h-103v-482q0 -43 11 -83.5t35 -79t70.5 -62t109.5 -23.5q106 0 170.5 68t64.5 196zM421 244q0 -77 -32.5 -125.5t-92.5 -48.5q-41 0 -69 27.5t-39 63.5t-11 75q0 75 33 129
t90 54q52 0 81 -32.5t35 -81.5q5 -32 5 -61z" />
    <glyph glyph-name="Identity.30" horiz-adv-x="515" 
d="M500 325q0 90 -58 138.5t-152 48.5q-119 0 -187.5 -70t-68.5 -181q0 -70 27.5 -127.5t71.5 -91.5q62 -47 169.5 -54.5t181.5 36.5v81q-31 -18 -69 -26.5t-57 -8.5q-216 0 -216 204q0 64 41.5 108t103.5 44q56 0 80.5 -30t24.5 -71h108z" />
    <glyph glyph-name="Identity.31" horiz-adv-x="560" 
d="M489 -2v719h-103v-296h-3q-9 31 -43 61t-87 30q-76 0 -131 -42.5t-78 -133.5q-10 -41 -10 -94q0 -113 58 -184.5t149 -71.5q39 0 68.5 10.5t44 26.5t21 27t8.5 20h3v-72h103zM378 274q0 -44 -8 -84q-10 -51 -39 -85.5t-71 -34.5q-58 0 -88.5 51t-30.5 116q2 57 4 71
q8 56 40 87t74 31q41 0 69.5 -29t39 -61.5t10.5 -61.5z" />
    <glyph glyph-name="Identity.32" horiz-adv-x="530" 
d="M500 285q-2 104 -61.5 165.5t-155.5 61.5q-119 0 -184 -68.5t-65 -182.5q0 -70 27.5 -127.5t71.5 -91.5q62 -47 167 -54t184 36v81q-31 -18 -69 -26.5t-57 -8.5q-186 0 -212 150h352v65h2zM393 305h-250q7 58 43.5 89.5t93.5 31.5q55 0 84 -36t29 -85z" />
    <glyph glyph-name="Identity.33" horiz-adv-x="360" 
d="M377 615v89q-60 12 -98 12q-110 -3 -156 -66q-30 -42 -30 -137v-17h-90v-87h90v-415h106v415h143v87h-143v37q-1 43 11 67q21 30 73 30q46 -3 94 -15z" />
    <glyph glyph-name="Identity.34" horiz-adv-x="560" 
d="M491 40v462h-105v-80h-3q-10 33 -43 62.5t-85 29.5q-83 0 -139 -47.5t-72 -116.5q-10 -50 -10 -111q0 -114 59.5 -177.5t153.5 -63.5q101 0 136 92h3v-61q0 -20 -1 -26q-6 -46 -40.5 -73.5t-97.5 -27.5q-97 0 -177 40v-102q70 -29 167 -29q124 0 189 57.5t65 171.5z
M382 259q0 -77 -35.5 -125.5t-88.5 -48.5q-60 0 -89.5 44.5t-29.5 107.5q4 80 5 85q11 51 44.5 78.5t69.5 27.5q54 0 89 -51.5t35 -117.5z" />
    <glyph glyph-name="Identity.35" horiz-adv-x="560" 
d="M504 -3v360q0 75 -50 114.5t-120 39.5q-106 0 -158 -126h-3v331h-102v-719h102v219q0 32 9 67q16 57 55 95.5t82 38.5t61 -29t18 -65v-326h106z" />
    <glyph glyph-name="Identity.36" horiz-adv-x="250" 
d="M187 589v125h-126v-125h126zM178 -6v503h-106v-503h106z" />
    <glyph glyph-name="Identity.37" horiz-adv-x="260" 
d="M197 591v126h-127v-126h127zM188 18v481h-106v-506q0 -25 -9 -42.5t-20.5 -26t-31.5 -13.5t-33 -5.5t-34 -0.5v-93q111 0 172.5 44t61.5 162z" />
    <glyph glyph-name="Identity.38" horiz-adv-x="480" 
d="M527 -3l-266 279l248 222h-136l-199 -178v396h-103v-719h103v223h4l215 -223h134z" />
    <glyph glyph-name="Identity.39" horiz-adv-x="250" 
d="M178 -4v719h-106v-719h106z" />
    <glyph glyph-name="Identity.40" horiz-adv-x="820" 
d="M753 -2v350q0 81 -43.5 122.5t-116.5 41.5q-37 0 -66 -15t-45.5 -38.5t-24 -38.5t-10.5 -27h-6q-14 56 -45.5 87.5t-93.5 31.5q-29 0 -53.5 -14t-40 -35.5t-24.5 -39.5t-13 -34h-3v111h-100v-502h100v205q0 71 28 138q39 72 88 72q27 0 44 -12t23.5 -37t8 -43t1.5 -50
v-273h100v205q2 35 7 69q13 62 42.5 102t66.5 40q19 0 33.5 -5.5t22.5 -19t12.5 -23t6.5 -32t2 -30.5v-33v-273h99z" />
    <glyph glyph-name="Identity.41" horiz-adv-x="570" 
d="M497 -2v351q0 76 -46.5 119.5t-120.5 43.5q-31 0 -56 -9t-40.5 -22t-27.5 -30.5t-17.5 -30.5l-10.5 -25q-1 -4 -2 -6h-5v112h-100v-503h100v205q2 39 8 68q18 66 54 105.5t81 36.5q24 -2 40.5 -11t25 -19.5t12.5 -31t4.5 -32.5t0.5 -37v-11v-273h100z" />
    <glyph glyph-name="Identity.42" horiz-adv-x="565" 
d="M531 248q0 121 -66.5 192t-184.5 71q-120 0 -183.5 -74.5t-63.5 -189.5q0 -124 68 -192t181 -68q117 0 183 70.5t66 190.5zM421 248q0 -75 -34 -125t-104 -50q-71 0 -107 50t-36 124q0 78 34.5 128t104.5 50q73 0 107.5 -50.5t34.5 -126.5z" />
    <glyph glyph-name="Identity.43" horiz-adv-x="560" 
d="M527 240q0 128 -62 200.5t-155 72.5t-130 -102h-5v91h-103v-690h103v268h5q14 -40 46 -66.5t79 -26.5q103 0 162.5 73.5t59.5 179.5zM419 241q0 -71 -29.5 -118t-86.5 -47q-62 0 -92.5 55t-30.5 120q0 77 35 125t86 48q57 0 87.5 -52.5t30.5 -130.5z" />
    <glyph glyph-name="Identity.44" horiz-adv-x="550" 
d="M480 -188v690h-103v-85h-5q-11 28 -22 45.5t-38.5 34t-66.5 16.5q-93 0 -153.5 -72t-60.5 -200q0 -107 57.5 -180t158.5 -73q51 0 83.5 30.5t41.5 61.5h5v-268h103zM370 252q0 -41 -9.5 -78t-36.5 -67t-68 -30q-57 0 -87.5 46.5t-34.5 117.5q0 78 32 130.5t89 52.5
q47 0 81 -48.5t34 -123.5z" />
    <glyph glyph-name="Identity.45" horiz-adv-x="375" 
d="M387 406v104q-58 0 -89 -8.5t-63 -30.5t-54 -74h-5v102h-105v-503h105v206q3 55 11 85q29 119 200 119z" />
    <glyph glyph-name="Identity.46" horiz-adv-x="410" 
d="M395 139q0 36 -17.5 64.5t-47.5 47.5t-58 31.5t-61.5 25t-46.5 19.5q-34 22 -34 54q0 23 24.5 33.5t55.5 10.5q69 0 153 -41v103q-77 25 -143 25q-94 0 -144.5 -38.5t-50.5 -108.5q0 -83 95 -124q25 -12 63.5 -26.5t57 -22.5t33.5 -23.5t15 -37.5q0 -58 -112 -58
q-67 0 -154 45v-101q76 -32 157 -32q119 0 167 40t48 114z" />
    <glyph glyph-name="Identity.47" horiz-adv-x="360" 
d="M341 412v87h-143v171l-106 -64v-107h-86v-87h86v-280q0 -147 160 -147q40 0 86 6v95q-38 -12 -71 -12q-24 0 -38.5 7.5t-21 23.5t-8 29.5t-1.5 36.5v241h143z" />
    <glyph glyph-name="Identity.48" horiz-adv-x="570" 
d="M501 -1v502h-101v-211q-2 -39 -8 -70q-14 -62 -48 -101.5t-89 -39.5q-27 0 -45.5 9.5t-26.5 27t-10.5 34t-2.5 38.5v313h-101v-349q0 -69 47 -116.5t115 -47.5q131 0 166 115h5v-104h99z" />
    <glyph glyph-name="Identity.49" horiz-adv-x="495" 
d="M504 500h-106l-140 -364h-3l-155 364h-109l221 -503h90z" />
    <glyph glyph-name="Identity.50" horiz-adv-x="725" 
d="M711 501h-102l-87 -367h-2l-113 367h-86l-113 -368h-2l-87 368h-103l136 -503h99l110 353h4l113 -353h101z" />
    <glyph glyph-name="Identity.51" horiz-adv-x="490" 
d="M502 -2l-195 263l178 240h-122l-115 -164l-115 164h-123l177 -241l-196 -262h121l136 182l133 -182h121z" />
    <glyph glyph-name="Identity.52" horiz-adv-x="480" 
d="M488 502h-108l-130 -355h-5l-146 355h-108l203 -480l-78 -210h109z" />
    <glyph glyph-name="Identity.53" horiz-adv-x="460" 
d="M439 -2v88h-279l265 337l1 78h-385v-88h255l-267 -338v-77h410z" />
    <glyph glyph-name="Identity.54" horiz-adv-x="940" 
d="M405 -115h105l-10 587h-85zM396 719v-129h126v129h-126z" />
    <glyph glyph-name="Identity.55" horiz-adv-x="386" 
d="M356 232q25 69 -45 155q-19 24 -51.5 55l-54.5 51t-39 48.5t-17 56.5q0 57 43 65q26 5 36 -7q2 -2 1 -5q-9 -36 22.5 -70t66.5 -2q14 12 15.5 30.5t-9 38.5t-28 37t-45.5 28t-58 10q-59 -1 -97 -41t-35 -110q1 -33 13.5 -66t21.5 -48t5 -15q-8 1 -25.5 -12.5t-25.5 -31.5
q-25 -51 0 -101t79 -106l22 -24l21.5 -23l20.5 -22.5t17.5 -22l14 -22.5t9.5 -23.5t4 -24.5t-2 -26q-10 -43 -51 -42q-21 2 -22 9q8 23 -12.5 56t-56.5 23q-25 -5 -29.5 -33.5t16 -61.5t58.5 -47q59 -21 116 6t73 93q8 30 6.5 56t-8 48t-14.5 37.5t-13.5 24.5t-4.5 9
q26 6 39 17.5t23 32.5zM245 316q16 -18 24.5 -37t3 -33.5t-28.5 -14.5q-31 0 -89 67q-36 44 -28 72q5 18 29 15q35 -5 89 -69z" />
    <glyph glyph-name="Identity.56" horiz-adv-x="560" 
d="M494 773h-126v-123h126v123zM192 773h-126v-123h126v123z" />
    <glyph glyph-name="Identity.57" horiz-adv-x="686" 
d="M111 172h464v83h-464v-83zM435 290h95v282q0 64 -49 107t-125 43q-79 0 -130.5 -41t-51.5 -96h110q0 31 16 43t54 12q76 0 76 -64v-18q-26 4 -67.5 -1.5t-87.5 -20t-79 -49.5t-33 -84q0 -54 42.5 -88t93.5 -34q112 0 131 45l5 -5v-31zM430 444q0 -33 -29 -57t-74 -24
q-59 0 -59 48q0 73 162 70v-37z" />
    <glyph glyph-name="Identity.58" horiz-adv-x="408" 
d="M373 359h-338v-98h338v98z" />
    <glyph glyph-name="Identity.59" horiz-adv-x="940" 
d="M758 215h-43q-16 0 -21 -5.5t-10 -18.5t-16 -24q-21 -21 -47 -21l-322 1q-5 0 10 10q64 42 202 84q185 53 225 144q34 79 -13.5 143.5t-140.5 83.5q-41 8 -87.5 11.5t-116 -7.5t-117.5 -42q-30 -19 -49.5 -44.5t-25 -58.5t16.5 -67q15 -24 46.5 -32t62 6.5t41.5 48.5
q5 15 4 28t-5 24t-9 19t-9 12l-3 5q0 2 13 10.5t50.5 16.5t86.5 4q68 -5 89.5 -57.5t-24.5 -108.5q-18 -22 -51.5 -40t-86 -42.5t-89.5 -46.5q-151 -93 -151 -174v-70h571zM159 -100q-48 0 -76 25q-33 29 -33 88v596q0 50 23 78q29 33 89 33h596q60 0 89 -33q23 -28 23 -78
v-596q0 -59 -33 -88q-28 -25 -76 -25h-602zM174 751q-90 0 -124 -41q-31 -38 -31 -98v-588q0 -89 42 -122q41 -33 100 -33h598q59 0 100 33q42 33 42 122v588q0 60 -31 98q-34 41 -124 41h-572z" />
    <glyph glyph-name="Identity.60" horiz-adv-x="662" 
d="M625 338v89h-244v189h-99v-189h-245v-89h245v-193h99v193h244zM625 10v88h-588v-88h588z" />
    <glyph glyph-name="Identity.61" horiz-adv-x="940" 
d="M565 714h-118l-73 -192h90z" />
    <glyph glyph-name="Identity.62" horiz-adv-x="940" 
d="M592 729h-185q-78 0 -133 -53t-55 -126q0 -81 53 -133t141 -52v-474h39v799h101v-799h39v838z" />
    <glyph glyph-name="Identity.63" horiz-adv-x="286" 
d="M205 372h-124v-124h124v124z" />
    <glyph glyph-name="Identity.64" horiz-adv-x="310" 
d="M282 12h-100v-107q-3 -18 -16.5 -24.5t-44.5 -6.5q-38 0 -74 23l-31 -45q73 -42 134 -39q54 1 93 27t39 65v107z" />
    <glyph glyph-name="Identity.65" horiz-adv-x="686" 
d="M111 172h464v83h-464v-83zM342 288q95 0 151 59.5t56 154.5q0 100 -56 161.5t-148 61.5q-98 0 -152 -64t-54 -156q1 -100 57.5 -158.5t145.5 -58.5zM246 505q0 138 100 138q96 0 96 -140q0 -133 -101 -133q-95 0 -95 135z" />
    <glyph glyph-name="Identity.66" horiz-adv-x="940" 
d="M213 81q0 -96 66 -141t158 -45q71 0 173 26l1 99q-91 -40 -168 -42q-57 2 -94 28.5t-37 79.5q0 9 4 20t8.5 20.5t14.5 22.5l17 21.5t20.5 22.5l19.5 20l20.5 20l17.5 17q38 35 57 73.5t19 96.5v85h-92v-45q0 -51 -7 -79.5t-17.5 -42.5t-37.5 -39q-2 -2 -21.5 -20
t-30.5 -29t-30.5 -34t-31 -42t-20.5 -44.5t-9 -48.5zM401 719v-129h127v129h-127z" />
    <glyph glyph-name="Identity.67" horiz-adv-x="662" 
d="M620 88l-223 221l209 209l-66 62l-209 -206l-207 212l-66 -68l209 -211l-219 -214l71 -64l213 215l225 -224z" />
    <glyph glyph-name="Identity.68" horiz-adv-x="662" 
d="M405 536q0 31 -20.5 54t-52.5 23q-30 0 -52.5 -22t-22.5 -55q0 -29 23 -49.5t52 -20.5q28 0 50.5 20.5t22.5 49.5zM633 262v94h-604v-94h604zM406 82q0 29 -21.5 51t-54.5 22q-28 0 -51.5 -22.5t-23.5 -51.5q0 -31 22.5 -52t53.5 -22q29 0 52 23.5t23 51.5z" />
    <glyph glyph-name="Identity.69" horiz-adv-x="940" 
d="M616 772l-166 -75l-165 75v-82l166 -78l165 78v82z" />
    <glyph glyph-name="Identity.70" horiz-adv-x="253" 
d="M219 69l-95 155l-92 -155h187zM33 551l91 -157l95 157h-186z" />
    <glyph glyph-name="Identity.71" horiz-adv-x="940" 
d="M624 694l1 87q-102 -83 -167 -83q-62 0 -164 82l-1 -86q88 -78 165 -78q84 0 166 78z" />
    <glyph glyph-name="Identity.72" horiz-adv-x="940" 
d="M467 610q31 0 50 19t19 45q-2 27 -19.5 46t-43.5 19q-30 0 -49.5 -19.5t-19.5 -46.5q1 -26 20 -44.5t43 -18.5z" />
    <glyph glyph-name="Identity.73" horiz-adv-x="940" 
d="M479 812q-41 0 -71 -29.5t-30 -67.5q0 -40 29 -70.5t67 -30.5q41 0 71.5 29.5t30.5 66.5q0 40 -29.5 71t-67.5 31zM479 752q15 0 25 -11.5t10 -30.5q0 -16 -11 -26.5t-29 -10.5q-14 0 -24 11.5t-10 30.5q0 17 10.5 27t28.5 10z" />
    <glyph glyph-name="Identity.74" horiz-adv-x="310" 
d="M28 -84q0 -47 38 -74.5t93 -28.5q61 -3 134 39l-31 45q-36 -23 -76 -23q-29 0 -42.5 6.5t-15.5 24.5v107h-100v-96z" />
    <glyph glyph-name="Identity.75" horiz-adv-x="940" 
d="M476 714h-118l-73 -192h90zM616 714h-118l-73 -192h90z" />
    <glyph glyph-name="Identity.76" horiz-adv-x="940" 
d="M932 359h-945v-98h945v98z" />
    <glyph glyph-name="Identity.77" horiz-adv-x="240" 
d="M52 655v-93h132v129h-52q0 11 6 22q8 14 57 30l-53 63q-53 -31 -73 -60q-17 -27 -17 -91z" />
    <glyph glyph-name="Identity.78" horiz-adv-x="240" 
d="M185 698v95h-132v-129h52q0 -13 -8 -24q-8 -14 -57 -30l53 -63q53 31 73 60q19 30 19 91z" />
    <glyph glyph-name="Identity.79" horiz-adv-x="412" 
d="M79 655v-93h127v129h-47q0 11 6 22q11 20 47 34l-43 59q-53 -31 -73 -60q-17 -27 -17 -91zM232 655v-93h127v129h-47q0 11 6 22q11 20 47 34l-43 59q-53 -31 -73 -60q-17 -27 -17 -91z" />
    <glyph glyph-name="Identity.80" horiz-adv-x="412" 
d="M358 700v93h-127v-129h47q0 -11 -6 -22q-11 -20 -47 -34l43 -59q53 31 73 60q17 27 17 91zM205 700v93h-127v-129h47q0 -11 -6 -22q-11 -20 -47 -34l43 -59q53 31 73 60q17 27 17 91z" />
    <glyph glyph-name="Identity.81" horiz-adv-x="940" 
d="M482 550q0 40 13 90q13 34 5 75.5t-36 41.5q-34 0 -44.5 -41.5t2.5 -75.5q15 -52 15 -90q-23 0 -81 14q-34 13 -70 5t-36 -36q0 -34 36 -44.5t70 2.5q60 17 82 15q0 -50 -21 -77q-20 -27 -1 -72q14 -34 19 -133.5t2.5 -180.5t1.5 -128q4 -45 20.5 -45t20.5 45q4 47 2 128
t2.5 180.5t18.5 133.5q7 20 7 36t-4 26l-4 10q-19 24 -19 77q20 2 80 -15q34 -12 70.5 -4t36.5 37q0 34 -36.5 43.5t-70.5 -3.5q-58 -14 -81 -14z" />
    <glyph glyph-name="Identity.82" horiz-adv-x="940" 
d="M437 516v-87q-30 0 -79 14q-33 13 -68.5 5t-35.5 -36q0 -33 35.5 -43.5t68.5 2.5q58 17 79 15q0 -50 -19 -76q-19 -23 -1 -70q13 -34 17.5 -96.5t4 -137t0.5 -91.5q2 -45 20.5 -45t20.5 45q1 12 0.5 90t4 139.5t17.5 95.5q14 38 -5 69q-14 23 -14 77q19 2 78 -15
q33 -12 69 -3.5t36 35.5q0 34 -36 43.5t-69 -3.5q-49 -14 -78 -14v87q7 1 78 -15q33 -12 69 -3.5t36 35.5q0 34 -36 43.5t-69 -3.5q-49 -14 -79 -14q0 37 12 83q13 33 5.5 74t-35.5 41q-34 0 -44 -41t3 -74q14 -49 14 -83q-30 0 -79 14q-33 12 -68.5 4.5t-35.5 -35.5
q0 -33 35.5 -43.5t68.5 2.5q64 16 79 15z" />
    <glyph glyph-name="Identity.83" horiz-adv-x="572" 
d="M491 372h-124v-124h124v124zM205 372h-124v-124h124v124z" />
    <glyph glyph-name="Identity.84" horiz-adv-x="858" 
d="M777 372h-124v-124h124v124zM491 372h-124v-124h124v124zM205 372h-124v-124h124v124z" />
    <glyph glyph-name="Identity.85" horiz-adv-x="258" 
d="M86 481l165 269h-138l-103 -269h76z" />
    <glyph glyph-name="Identity.86" horiz-adv-x="432" 
d="M100 481l165 269h-139l-103 -269h77zM239 481l165 269h-139l-103 -269h77z" />
    <glyph glyph-name="Identity.87" horiz-adv-x="940" 
d="M535 545q0 33 -22.5 57t-48.5 24q-33 0 -55.5 -22t-22.5 -48q0 -33 21 -56t47 -23q33 0 57 20.5t24 47.5zM776 307q-1 31 -23.5 53t-49.5 22q-31 1 -53.5 -21.5t-22.5 -48.5q0 -31 20.5 -53t45.5 -22q35 0 59 20.5t24 49.5zM293 303q0 33 -22 57t-50 24
q-32 -2 -54.5 -24.5t-22.5 -47.5q0 -31 21.5 -53t47.5 -22q33 0 56.5 20t23.5 46zM794 39l-271 271l271 271l-63 63l-272 -271l-272 272l-62 -66l270 -269l-271 -271l63 -66l273 272l272 -272zM535 63q0 32 -23 55.5t-49 23.5q-32 0 -54.5 -22t-22.5 -47q0 -33 21.5 -56
t47.5 -23q33 0 56.5 21t23.5 48z" />
    <glyph glyph-name="Identity.88" horiz-adv-x="940" 
d="M270 130l71 99l-57 34l-52 -111l-52 113l-56 -35l72 -100l-121 9v-62l121 10l-71 -100l58 -33l49 112l50 -112l57 34l-69 99l117 -10v62zM728 130l71 99l-57 34l-52 -111l-52 113l-56 -35l73 -100l-122 9v-62l122 10l-72 -100l58 -33l49 112l50 -112l57 34l-69 99
l117 -10v62zM482 500l98 -71l34 57l-110 52l113 52l-36 56l-99 -72l9 121h-62l10 -121l-100 71l-32 -58l111 -49l-112 -50l35 -57l98 69l-10 -117h62z" />
    <glyph glyph-name="Identity.89" horiz-adv-x="852" 
d="M133 785q-49 0 -85.5 -35.5t-36.5 -83.5q0 -47 36.5 -83.5t85.5 -36.5q47 0 83.5 36.5t36.5 83.5q0 48 -36 83.5t-84 35.5zM133 719q22 0 36 -14.5t14 -38.5t-14 -38.5t-36 -14.5q-23 0 -37.5 15t-14.5 38t14.5 38t37.5 15zM799 23v115l-21 -17l-15.5 -12.5t-8.5 -7.5
q-61 -37 -156 -36q-60 1 -106 23.5t-72 55t-42.5 74.5t-22 77t-5.5 68q0 133 62.5 207.5t160.5 74.5q80 -2 110 -40q34 -35 34 -100h109q-2 67 -18 99q-29 60 -93.5 95t-141.5 35q-105 0 -182 -53.5t-113 -135t-36 -177.5q0 -72 20.5 -139.5t59.5 -125t105.5 -92.5
t150.5 -35q27 0 51 1.5t45 5.5l35.5 7t31.5 9t23.5 8.5t20 9t14.5 6.5z" />
    <glyph glyph-name="Identity.90" horiz-adv-x="940" 
d="M714 110q80 0 142.5 52t62.5 154q0 94 -63.5 151.5t-143.5 57.5q-77 0 -140 -58.5t-63 -151.5q0 -102 61.5 -153.5t143.5 -51.5zM618 315q0 62 25.5 94.5t67.5 32.5t69.5 -33t27.5 -93q0 -56 -26.5 -89.5t-66.5 -33.5q-42 0 -69.5 33t-27.5 89zM509 78v-90h410v91z
M373 191l-204 531h-123v-734h101v528l204 -528h123v734h-101v-531z" />
    <glyph glyph-name="Identity.91" horiz-adv-x="940" 
d="M192 -12h104v643h201v91h-506v-91h201v-643zM755 311h-1q0 83 -47.5 144t-137.5 61q-112 0 -174 -71t-62 -186q1 -127 81 -208q62 -59 148.5 -68.5t177.5 18.5v82q-62 -18 -118.5 -20t-103.5 19q-79 46 -81 147h318v82zM438 311q10 122 124 122q52 0 69 -32.5t16 -89.5
h-209zM803 -12h100v734h-100v-734z" />
    <glyph glyph-name="Identity.92" horiz-adv-x="940" 
d="M213 308h83v332h130v84h-343v-84h130v-332zM603 308h60l82 214v-214h74v416h-85l-103 -285l-116 285h-74v-416h74v213z" />
    <glyph glyph-name="Identity.93" horiz-adv-x="940" 
d="M225 492l-253 -183l252 -188l-54 152h767v73h-767z" />
    <glyph glyph-name="Identity.94" horiz-adv-x="940" 
d="M647 540l-189 256l-182 -254l147 54v-762h73v762z" />
    <glyph glyph-name="Identity.95" horiz-adv-x="940" 
d="M693 120l255 189l-255 182l55 -145h-765v-73h765z" />
    <glyph glyph-name="Identity.96" horiz-adv-x="940" 
d="M276 71l182 -255l189 257l-151 -56v770h-73v-770z" />
    <glyph glyph-name="Identity.97" horiz-adv-x="940" 
d="M692 121l254 188l-255 182l55 -145h-576l55 146l-253 -183l252 -188l-54 152h576z" />
    <glyph glyph-name="Identity.98" horiz-adv-x="940" 
d="M294 554l132 54v-601l-134 54l169 -242l166 241l-133 -53v602l135 -55l-169 242z" />
    <glyph glyph-name="Identity.99" horiz-adv-x="940" 
d="M320 711l-312 51l49 -313l66 146l747 -759l56 53l-748 760z" />
    <glyph glyph-name="Identity.100" horiz-adv-x="940" 
d="M865 449l49 313l-312 -51l143 -62l-745 -759l51 -56l749 761z" />
    <glyph glyph-name="Identity.101" horiz-adv-x="940" 
d="M605 -98l312 -52l-49 314l-65 -146l-749 760l-51 -56l744 -758z" />
    <glyph glyph-name="Identity.102" horiz-adv-x="940" 
d="M56 169l-51 -310l313 47l-146 66l759 747l-53 56l-760 -748z" />
    <glyph glyph-name="Identity.103" horiz-adv-x="940" 
d="M-17 253v-74l711 -1l-96 -101l55 -58l285 290l-288 288l-52 -61l95 -98l-710 1v-74h782l56 -57l-55 -55h-783z" />
    <glyph glyph-name="Identity.104" horiz-adv-x="940" 
d="M226 439l95 98l-57 61l-280 -289l281 -293l56 64l-95 99h468l-97 -99l59 -63l280 292l-281 286l-60 -57l99 -99h-468zM765 253h-612l-55 55l56 57h610l56 -57z" />
    <glyph glyph-name="Identity.105" horiz-adv-x="574" 
d="M-35 720l259 -719h117l255 717l-109 2l-78 -211h-250l-73 211h-121zM192 413h186l-95 -283h-4z" />
    <glyph glyph-name="Identity.106" horiz-adv-x="423" 
d="M375 268q26 97 -14.5 167t-122.5 73q-84 4 -140 -61q-33 -39 -27 -62q1 -4 4 -6q11 -8 28.5 5l42 32t47.5 22q62 10 84.5 -18t19.5 -64q-60 0 -109 -13q-64 -20 -103 -57.5t-48 -68t-4 -52.5q11 -54 59 -73.5t103 -3.5q60 17 110 63.5t70 116.5zM293 287q-8 -48 -69 -101
q-27 -23 -54.5 -28.5t-40.5 8.5q-14 12 -5 37t42 48q51 36 127 36z" />
    <glyph glyph-name="Identity.107" horiz-adv-x="525" 
d="M447 722h-416v-91h312v-248h-291v-90h291v-214h-303v-91h407v734z" />
    <glyph glyph-name="Identity.108" horiz-adv-x="940" 
d="M460 8l357 612h-717zM459 107l-272 463h543z" />
    <glyph glyph-name="Identity.109" horiz-adv-x="940" 
d="M168 258h628v82h-628q0 12 5 27t28 44t62 58q8 6 21.5 11.5t26.5 9t25 6t20 4.5l8 1h430v83h-430q-21 0 -64.5 -10.5t-76.5 -31.5q-146 -93 -138 -262q2 -73 39 -131t93 -88q67 -42 122 -42h458v83h-424q-70 0 -123 40q-46 35 -64 66t-18 50z" />
    <glyph glyph-name="Identity.110" horiz-adv-x="940" 
d="M732 258q0 -19 -18 -50t-64 -66q-53 -40 -123 -40h-424v-83h458q55 0 122 42q56 30 93 88t39 131q8 169 -138 262q-33 21 -76.5 31.5t-64.5 10.5h-430v-83h430l8 -1q8 -2 20 -4.5t25 -6t26.5 -9t21.5 -11.5q39 -29 62 -58t28 -44t5 -27h-628v-82h628z" />
    <glyph glyph-name="Identity.111" horiz-adv-x="660" 
d="M585 722h-509v-734h105v644h299v-644h105v734z" />
    <glyph glyph-name="Identity.112" horiz-adv-x="472" 
d="M15 638l246 -267l-246 -300v-83h426v91h-301l244 293l-239 259h287v91h-417v-84z" />
    <glyph glyph-name="Identity.113" horiz-adv-x="940" 
d="M111 208l45 -66l44 60l183 -370l355 893h199v62h-252l-303 -762l-163 334z" />
    <glyph glyph-name="Identity.114" horiz-adv-x="940" 
d="M305 441q29 2 55 -10.5t41 -29t28 -38t17 -30.5t6 -15l-6 -11q-5 -11 -7 -15t-8.5 -15.5t-11 -17.5t-13 -16.5t-16 -16t-18 -12.5t-21 -10.5t-23.5 -5t-27 -0.5q-43 4 -73 39t-29 87q1 47 33 81t73 36zM816 474q-1 1 -10.5 7.5t-12 8t-11.5 7.5t-13.5 7.5t-14 5.5
t-17 5.5t-18.5 3.5t-22.5 2.5t-24.5 0.5q-38 -1 -70.5 -14t-52.5 -32t-31 -32.5t-17 -25.5q-2 4 -8 13t-24 28t-39 33.5t-56 24.5t-73 7q-78 -4 -134 -62t-58 -135q-2 -81 48.5 -142t129.5 -73q42 -6 80.5 4.5t65 31t42.5 38.5t23 32q56 -99 169 -110q14 -3 29 -1l26 3.5
t23 6.5t19.5 8.5t16.5 9t13.5 8.5t9.5 7l6 5l-44 80q-14 -14 -40 -28t-52 -13q-23 2 -40.5 9.5t-31.5 23t-21.5 26.5t-19.5 32.5l-16 28.5q0 1 5.5 11l7.5 13.5l8 14.5t9.5 16l10.5 14.5t12.5 15l13.5 13t15 11.5t16.5 8t18.5 5q56 5 103 -30z" />
    <glyph glyph-name="Identity.115" horiz-adv-x="940" 
d="M461 367q-6 34 -49.5 78.5t-113.5 44.5q-73 0 -126 -53t-53 -127t53 -127t126 -53q71 0 114.5 44t46.5 79q4 -35 50 -79t113 -44q73 0 126 53t53 127q0 75 -53.5 127.5t-127.5 52.5q-69 0 -111 -43.5t-48 -79.5zM199 310q0 44 28.5 73.5t70.5 29.5q26 0 48 -14t35 -33.5
t20 -33.5t10 -21v-1v-1q-29 -78 -84 -97q-14 -5 -29 -5q-42 0 -70.5 29.5t-28.5 73.5zM722 310q0 -43 -28.5 -72t-71.5 -29q-26 0 -48 13.5t-35 32.5t-20 33t-10 21v1v1q29 78 84 97q14 5 29 5q42 0 71 -29.5t29 -73.5z" />
    <glyph glyph-name="Identity.116" horiz-adv-x="940" 
d="M811 -7v79h-552l507 508l-60 54l-563 -568q-8 -6 -18 -19.5t-7 -25.5q3 -11 13.5 -19.5t18.5 -8.5h661z" />
    <glyph glyph-name="Identity.117" horiz-adv-x="940" 
d="M580 -26v678h-36v-678h36zM404 -26v678h-35v-678h35z" />
    <glyph glyph-name="Identity.118" horiz-adv-x="940" 
d="M131 26l78 -48l249 505l244 -495l82 37l-284 569q-12 25 -43.5 25t-43.5 -25z" />
    <glyph glyph-name="Identity.119" horiz-adv-x="940" 
d="M132 602l282 -568q12 -24 44.5 -23.5t43.5 23.5l283 569l-82 38l-244 -496l-249 505z" />
    <glyph glyph-name="Identity.120" horiz-adv-x="940" 
d="M646 -49h92v437q0 69 -40 140q-42 73 -115.5 109.5t-158.5 27.5q-70 -7 -125.5 -47t-83.5 -93q-32 -63 -32 -116v-462h92v432v16.5v18.5t2 17t5.5 22t10.5 22.5t17 29.5q21 30 60.5 53.5t81.5 24.5q50 1 92.5 -23.5t69.5 -66.5q9 -16 17 -43t11 -44t3 -19z" />
    <glyph glyph-name="Identity.121" horiz-adv-x="940" 
d="M646 665v-431q0 -11 -9.5 -49.5t-22.5 -61.5q-27 -42 -69.5 -67t-92.5 -24q-42 1 -81.5 24.5t-60.5 53.5q-9 13 -15 24.5t-10 22t-6 17.5t-3 16.5t-1 13.5v14v13v439h-92v-458q0 -58 32 -121q27 -53 83 -93t126 -48q85 -9 158.5 27.5t115.5 109.5q40 71 40 135v443h-92z
" />
    <glyph glyph-name="Identity.122" horiz-adv-x="940" 
d="M632 620q16 33 -7 60t-58 27q-93 -4 -135 -142q-9 -31 -16 -63t-10.5 -53t-7 -60.5t-4 -52l-2.5 -63t-3 -61.5q-1 -17 -2.5 -50t-3 -51t-5 -40t-10.5 -34.5t-18 -16.5q-2 2 -6.5 6t-17 10t-23.5 7.5t-24.5 -7.5t-23.5 -29q-14 -27 9.5 -58.5t67.5 -23.5q124 23 151 275
q7 57 17 218q1 10 2 29t2 29.5t2 27.5t2.5 27l3.5 23.5t4 22t5 17t7 13.5t8 7q1 0 12 -8.5t24.5 -15.5t30.5 -1t29 31z" />
    <glyph glyph-name="Identity.123" horiz-adv-x="940" 
d="M510 620q16 33 -7 60t-58 27q-93 -4 -135 -142q-9 -31 -16 -63t-10.5 -53t-7 -60.5t-4 -52l-2.5 -63t-3 -61.5q-1 -17 -2.5 -50t-3 -51t-5 -40t-10.5 -34.5t-18 -16.5q-2 2 -6.5 6t-17 10t-23.5 7.5t-24.5 -7.5t-23.5 -29q-14 -27 9.5 -58.5t67.5 -23.5q124 23 151 275
q7 57 17 218q1 10 2 29t2 29.5t2 27.5t2.5 27l3.5 23.5t4 22t5 17t7 13.5t8 7q1 0 12 -8.5t24.5 -15.5t30.5 -1t29 31zM767 620q16 33 -7 60t-58 27q-93 -4 -135 -142q-9 -31 -16 -63t-10.5 -53t-7 -60.5t-4 -52l-2.5 -63t-3 -61.5q-1 -17 -2.5 -50t-3 -51t-5 -40
t-10.5 -34.5t-18 -16.5q-2 2 -6.5 6t-17 10t-23.5 7.5t-24.5 -7.5t-23.5 -29q-14 -27 9.5 -58.5t67.5 -23.5q124 23 151 275q7 57 17 218q1 10 2 29t2 29.5t2 27.5t2.5 27l3.5 23.5t4 22t5 17t7 13.5t8 7q1 0 12 -8.5t24.5 -15.5t30.5 -1t29 31z" />
    <glyph glyph-name="Identity.124" horiz-adv-x="940" 
d="M306 35q-23 5 -44 -10t-26 -40q-7 -31 13.5 -59t50.5 -33q73 -15 115.5 33.5t72.5 171.5v-1q56 0 104.5 45t59.5 111q11 62 -20.5 119t-80.5 82l10 96q3 19 10 35.5t12 23t6 6.5q-20 -51 33 -77q25 -7 46 8t26 42q7 32 -13.5 57.5t-52.5 31.5q-63 13 -113 -36t-71 -161
l-2 -6q-57 -4 -105.5 -48.5t-58.5 -107.5q-12 -60 18 -120t82 -83l-10 -85q-6 -42 -14 -58.5t-23 -17.5q22 11 12 41.5t-37 39.5zM426 401l-36 -214q-23 11 -35 42t-4 74q7 44 28 70t47 28zM537 378q24 -13 36.5 -43t4.5 -71q-6 -44 -28.5 -69.5t-47.5 -28.5z" />
    <glyph glyph-name="Identity.125" horiz-adv-x="940" 
d="M222 33q30 0 53.5 23t23.5 50q0 29 -22.5 51.5t-53.5 22.5q-29 0 -52.5 -21.5t-23.5 -50.5q0 -28 22 -51.5t53 -23.5zM693 33q29 0 52.5 23t23.5 50q0 29 -22.5 51.5t-52.5 22.5t-53.5 -21.5t-23.5 -50.5q0 -28 22 -51.5t54 -23.5zM455 426q30 0 54 22.5t24 51.5
t-23.5 51t-53.5 22q-29 0 -52.5 -21.5t-23.5 -49.5q0 -29 22 -52.5t53 -23.5z" />
    <glyph glyph-name="Identity.126" horiz-adv-x="940" 
d="M224 588q-34 0 -58 -24.5t-24 -53.5q1 -33 24.5 -56.5t53.5 -23.5q34 0 58.5 22.5t24.5 54.5t-24.5 56.5t-54.5 24.5zM695 588q-35 0 -58 -24.5t-23 -53.5q0 -34 23.5 -57t53.5 -23q34 0 58 22.5t24 54.5q0 31 -24.5 56t-53.5 25zM457 195q-34 0 -57.5 -24.5t-23.5 -55.5
q0 -32 24 -55t53 -23q33 0 58 22.5t25 52.5q0 33 -24.5 58t-54.5 25z" />
    <glyph glyph-name="Identity.127" horiz-adv-x="940" 
d="M82 239h106q8 70 37 106t85 30q18 -1 40 -15t34.5 -25.5l43.5 -40.5q89 -89 164 -95q110 -6 174 62t78 174h-110q-12 -67 -41.5 -103.5t-87.5 -31.5q-19 2 -41 15.5t-37 26.5t-42 40q-42 40 -81 64.5t-87 29.5q-96 8 -162 -63.5t-73 -173.5z" />
    <glyph glyph-name="Identity.128" horiz-adv-x="940" 
d="M365 399l41 74q-51 51 -136 52q-83 1 -141.5 -64t-56.5 -131q1 -98 57.5 -153t136.5 -58q39 -2 73.5 10.5t57.5 30.5t45.5 46.5t33.5 49l24.5 47.5t16.5 32q31 58 61 83t73 24q70 -5 99.5 -72.5t-16.5 -127.5q-61 -79 -178 -9q-4 2 -5 3l-41 -74q11 -10 28 -21t52 -21.5
t72 -7.5q97 8 152.5 92.5t26.5 172.5q-22 64 -71 103.5t-117 43.5q-76 6 -128 -39t-92 -120l-20 -42t-23.5 -41t-32.5 -44t-37 -25.5t-47 -11.5q-54 4 -84.5 41.5t-24.5 93.5q4 44 34.5 74.5t69.5 32.5q39 1 97 -44z" />
    <glyph glyph-name="Identity.129" horiz-adv-x="940" 
d="M337 556q0 29 -20.5 51.5t-43.5 22.5q-29 0 -50.5 -20t-21.5 -43q0 -29 19.5 -50.5t42.5 -21.5q29 0 51.5 19t22.5 42zM820 345v86h-716v-86h716zM820 183v87h-716v-87h716zM720 50q0 28 -21 50t-44 21q-27 1 -48.5 -19t-21.5 -42q0 -28 19.5 -50t42.5 -22
q28 0 50.5 19.5t22.5 42.5z" />
    <glyph glyph-name="Identity.130" horiz-adv-x="940" 
d="M779 166v90h-294l37 107h257v91h-226l52 155l-96 19l-58 -174h-292v-91h261l-37 -107h-224v-90h191l-56 -154l99 -17l61 171h325z" />
    <glyph glyph-name="Identity.131" horiz-adv-x="940" 
d="M818 423v76h-716v-76h716zM818 273v74h-716v-74h716zM818 121v76h-716v-76h716z" />
    <glyph glyph-name="Identity.132" horiz-adv-x="940" 
d="M797 198l-486 205l481 201l-37 85l-604 -253q-30 -14 -30 -34q0 -21 30 -34l605 -254zM811 1v95h-702v-95h702z" />
    <glyph glyph-name="Identity.133" horiz-adv-x="940" 
d="M808 402q0 20 -30 34l-604 253l-36 -85l480 -201l-486 -205l41 -84l605 253q30 14 30 35zM820 1v95h-703v-95h703z" />
    <glyph glyph-name="Identity.134" horiz-adv-x="940" 
d="M578 647l-522 -337l517 -347l46 60l-423 285l429 278zM799 647l-526 -337l519 -347l45 61l-424 284l428 278z" />
    <glyph glyph-name="Identity.135" horiz-adv-x="940" 
d="M327 647l-47 -61l430 -278l-424 -285l46 -60l517 347zM106 647l-42 -61l428 -278l-424 -284l45 -61l519 347z" />
    <glyph glyph-name="Identity.136" horiz-adv-x="940" 
d="M815 498v83h-429q-76 0 -141 -42q-73 -44 -108.5 -116.5t-26.5 -158.5q6 -70 45.5 -125.5t95.5 -86.5q56 -32 111 -32h457v83h-424h-11h-13.5t-13.5 1t-17 3t-17 5.5t-21 9.5t-22 14q-31 22 -54.5 65.5t-24.5 90.5q-1 54 23.5 100.5t63.5 73.5q24 15 55 23.5t43 8.5h429z
" />
    <glyph glyph-name="Identity.137" horiz-adv-x="940" 
d="M110 498h423q15 0 47 -8.5t56 -23.5q40 -27 64 -73.5t23 -100.5q-1 -47 -24.5 -90.5t-54.5 -65.5q-11 -8 -22 -14t-20.5 -9.5t-16.5 -5.5t-16 -3t-12.5 -1h-12.5h-8h-429v-83h450q61 0 117 32q56 31 95.5 86.5t44.5 125.5q9 86 -26.5 158.5t-108.5 116.5q-64 42 -133 42
h-436v-83z" />
    <glyph glyph-name="Identity.138" horiz-adv-x="940" 
d="M817 576v79h-429q-77 0 -139 -34q-73 -43 -109.5 -109t-27.5 -145q6 -62 45 -113t93 -78q59 -29 115 -29h457v79h-425h-12.5h-14.5t-13.5 1t-16.5 3l-17.5 5t-21.5 9l-23 13q-28 17 -50.5 55.5t-24.5 80.5q-1 50 24 91t65 64q21 13 52.5 20.5t42.5 7.5h430zM106 69v-78
h727v78h-727z" />
    <glyph glyph-name="Identity.139" horiz-adv-x="940" 
d="M122 576h423q15 0 47.5 -7.5t54.5 -20.5q40 -23 64.5 -64t23.5 -91q-2 -42 -24.5 -80.5t-50.5 -55.5l-23 -13t-21 -9l-17 -5t-16 -3t-12.5 -1h-12.5h-10h-430v-79h450q61 0 121 29q53 27 92 78t45 113q9 79 -27.5 145t-109.5 109q-62 34 -131 34h-436v-79zM834 69h-727
v-78h727v78z" />
    <glyph glyph-name="Identity.140" horiz-adv-x="940" 
d="M463 690q-160 0 -273 -110.5t-113 -268.5q0 -160 111.5 -271t269.5 -111q159 0 272 110.5t113 266.5q0 159 -112 271.5t-268 112.5zM463 637q135 0 231 -96.5t96 -234.5q0 -135 -97 -230t-235 -95q-136 0 -232 95.5t-96 234.5q0 136 97 231t236 95zM463 459
q-63 0 -107.5 -44.5t-44.5 -104.5q0 -62 43.5 -106t103.5 -44q62 0 107 43.5t45 101.5q0 63 -43.5 108.5t-103.5 45.5z" />
    <glyph glyph-name="Identity.141" horiz-adv-x="940" 
d="M795 -7v82h-291v534h-88v-534h-291v-82h670z" />
    <glyph glyph-name="Identity.142" horiz-adv-x="940" 
d="M813 309q-21 141 -121 232t-231 91q-133 0 -233 -90.5t-121 -232.5h83q20 112 93.5 177.5t177.5 65.5q101 0 175.5 -66t93.5 -177h83z" />
    <glyph glyph-name="Identity.143" horiz-adv-x="940" 
d="M414 22v-92h92v92h-92zM730 22h-91v-92h91v92zM526 -70h93v92h-93v-92zM191 -70h91v92h-91v-92zM78 -70h92v92h-92v-92zM302 -70h91v92h-91v-92zM842 22h-92v-92h92v92zM414 133v-91h92v91h-92zM730 133h-91v-91h91v91zM526 42h93v91h-93v-91zM191 42h91v91h-91v-91z
M78 42h92v91h-92v-91zM302 42h91v91h-91v-91zM842 133h-92v-91h92v91zM414 243v-91h92v91h-92zM730 243h-91v-91h91v91zM526 152h93v91h-93v-91zM191 152h91v91h-91v-91zM78 152h92v91h-92v-91zM302 152h91v91h-91v-91zM842 243h-92v-91h92v91zM414 356v-93h92v93h-92z
M730 356h-91v-93h91v93zM526 263h93v93h-93v-93zM191 263h91v93h-91v-93zM78 263h92v93h-92v-93zM302 263h91v93h-91v-93zM842 356h-92v-93h92v93zM414 467v-91h92v91h-92zM730 467h-91v-91h91v91zM526 376h93v91h-93v-91zM191 376h91v91h-91v-91zM78 376h92v91h-92v-91z
M302 376h91v91h-91v-91zM842 467h-92v-91h92v91zM414 577v-91h92v91h-92zM730 577h-91v-91h91v91zM526 486h93v91h-93v-91zM191 486h91v91h-91v-91zM78 486h92v91h-92v-91zM302 486h91v91h-91v-91zM842 577h-92v-91h92v91zM414 689v-92h92v92h-92zM730 689h-91v-92h91v92z
M526 597h93v92h-93v-92zM191 597h91v92h-91v-92zM78 597h92v92h-92v-92zM302 597h91v92h-91v-92zM842 689h-92v-92h92v92z" />
    <glyph glyph-name="Identity.144" horiz-adv-x="940" 
d="M667 102v426h-428v-426h428z" />
    <glyph glyph-name="Identity.145" horiz-adv-x="940" 
d="M667 102v426h-428v-426h428zM298 159v312h310v-312h-310z" />
    <glyph glyph-name="Identity.146" horiz-adv-x="940" 
d="M115 655v-690h690v690h-690zM753 604v-588h-586v588h586zM281 489v-358h358v358h-358z" />
    <glyph glyph-name="Identity.147" horiz-adv-x="940" 
d="M842 -71v762h-764v-762h764zM805 34v-65h-690v65h690zM805 137v-65h-690v65h690zM805 240v-65h-690v65h690zM805 343v-65h-690v65h690zM805 446v-65h-690v65h690zM805 549v-65h-690v65h690zM805 652v-65h-690v65h690z" />
    <glyph glyph-name="Identity.148" horiz-adv-x="940" 
d="M841 692h-762v-764h762v764zM736 655h65v-690h-65v690zM633 655h65v-690h-65v690zM530 655h65v-690h-65v690zM427 655h65v-690h-65v690zM324 655h65v-690h-65v690zM221 655h65v-690h-65v690zM118 655h65v-690h-65v690z" />
    <glyph glyph-name="Identity.149" horiz-adv-x="940" 
d="M842 -71v762h-764v-762h764zM427 34h66v-65h-66v65zM701 34v-65h-66v65h66zM531 -31v65h66v-65h-66zM219 -31v65h66v-65h-66zM115 -31v65h66v-65h-66zM323 -31v65h66v-65h-66zM805 34v-65h-66v65h66zM427 137h66v-65h-66v65zM701 137v-65h-66v65h66zM531 72v65h66v-65
h-66zM219 72v65h66v-65h-66zM115 72v65h66v-65h-66zM323 72v65h66v-65h-66zM805 137v-65h-66v65h66zM427 240h66v-65h-66v65zM701 240v-65h-66v65h66zM531 175v65h66v-65h-66zM219 175v65h66v-65h-66zM115 175v65h66v-65h-66zM323 175v65h66v-65h-66zM805 240v-65h-66v65h66
zM427 343h66v-65h-66v65zM701 343v-65h-66v65h66zM531 278v65h66v-65h-66zM219 278v65h66v-65h-66zM115 278v65h66v-65h-66zM323 278v65h66v-65h-66zM805 343v-65h-66v65h66zM427 446h66v-65h-66v65zM701 446v-65h-66v65h66zM531 381v65h66v-65h-66zM219 381v65h66v-65h-66z
M115 381v65h66v-65h-66zM323 381v65h66v-65h-66zM805 446v-65h-66v65h66zM427 549h66v-65h-66v65zM701 549v-65h-66v65h66zM531 484v65h66v-65h-66zM219 484v65h66v-65h-66zM115 484v65h66v-65h-66zM323 484v65h66v-65h-66zM805 549v-65h-66v65h66zM427 652h66v-65h-66v65z
M701 652v-65h-66v65h66zM531 587v65h66v-65h-66zM219 587v65h66v-65h-66zM115 587v65h66v-65h-66zM323 587v65h66v-65h-66zM805 652v-65h-66v65h66z" />
    <glyph glyph-name="Identity.150" horiz-adv-x="940" 
d="M78 691v-764h762v764h-762zM226 653l579 -579v-80l-659 659h80zM696 -35l-578 578v80l657 -658h-79zM118 485l519 -520h-79l-440 440v80zM118 71l105 -107l-105 1v106zM282 -35l-164 164v80l243 -244h-79zM499 -35h-79l-302 302v80zM800 546l-105 107h106zM636 653
l165 -165v-80l-244 245h79zM419 653h79l303 -303v-80zM805 132l-521 521h80l441 -441v-80z" />
    <glyph glyph-name="Identity.151" horiz-adv-x="940" 
d="M841 692h-762v-764h762v764zM692 654h80l-658 -659v80zM222 -34h-79l658 658v-80zM801 486v-80l-441 -441l-79 1zM800 72l1 -106h-106zM636 -35l-79 1l244 244v-80zM419 -34l382 382v-80l-303 -303zM118 547v107h105zM282 654h79l-243 -245v80zM499 654l-381 -383v80
l302 303h79zM114 133v80l440 441h80z" />
    <glyph glyph-name="Identity.152" horiz-adv-x="940" 
d="M846 -72v766h-772v-766h772zM734 396l58 59l8 -7v-99l-10 -10zM790 164l-59 59l58 58l11 -11v-96zM481 652h113l9 -9l-56 -56zM184 398l-58 -58l-10 10v98l10 9zM116 98l11 11l49 -50l-60 -62v101zM125 164l-9 10v96l10 11l58 -58zM247 652l7 -7l-50 -52l-58 59h101z
M372 587l-58 57l6 8h101l7 -8zM649 -30l60 59l59 -59h-119zM116 524v98l59 -60l-49 -49zM372 33l56 -56l-7 -7h-101l-6 5zM248 -30h-102l58 58l51 -52zM480 -31l66 66l57 -57l-9 -8zM800 98v-101l-61 62l49 50zM649 652h119l-59 -60zM800 524l-11 -11l-49 49l60 60v-98z
M284 614l58 -57l-50 -50l-58 57zM204 534l58 -58l-49 -50l-58 59zM459 614l57 -58l-56 -57l-58 58zM372 526l57 -57l-49 -50l-58 57zM292 446l57 -58l-49 -49l-57 58zM214 368l58 -57l-58 -58l-58 58zM546 527l49 -50l-57 -57l-49 49zM459 440l49 -50l-50 -50l-49 49z
M378 360l50 -50l-49 -50l-50 50zM301 282l49 -49l-58 -59l-49 50zM626 447l49 -50l-57 -57l-49 49zM539 360l49 -50l-50 -50l-49 49zM458 280l50 -50l-49 -50l-50 50zM381 203l50 -51l-58 -59l-50 51zM706 368l57 -57l-57 -57l-57 57zM619 281l57 -57l-50 -50l-58 57z
M538 201l58 -58l-50 -49l-57 58zM461 123l57 -58l-58 -57l-57 57zM704 194l57 -56l-50 -50l-57 56zM624 114l57 -57l-49 -49l-57 57zM632 614l49 -50l-56 -57l-49 49zM712 534l50 -50l-57 -58l-49 50zM212 194l50 -50l-58 -58l-49 50zM292 114l50 -50l-58 -58l-49 50z" />
    <glyph glyph-name="Identity.153" horiz-adv-x="940" 
d="M460 638l-360 -610h717z" />
    <glyph glyph-name="Identity.154" horiz-adv-x="940" 
d="M460 638l-360 -610h717zM459 539l271 -461h-543z" />
    <glyph glyph-name="Identity.155" horiz-adv-x="940" 
d="M786 310l-607 356v-715z" />
    <glyph glyph-name="Identity.156" horiz-adv-x="940" 
d="M786 310l-607 356v-715zM697 309l-474 -279v557z" />
    <glyph glyph-name="Identity.157" horiz-adv-x="940" 
d="M460 -20l357 611h-717z" />
    <glyph glyph-name="Identity.158" horiz-adv-x="940" 
d="M460 -20l357 611h-717zM459 79l-272 462h543z" />
    <glyph glyph-name="Identity.159" horiz-adv-x="940" 
d="M133 310l608 -359v715z" />
    <glyph glyph-name="Identity.160" horiz-adv-x="940" 
d="M133 310l608 -359v715zM222 309l475 278v-557z" />
    <glyph glyph-name="Identity.161" horiz-adv-x="940" 
d="M457 624l-311 -314l313 -315l314 315z" />
    <glyph glyph-name="Identity.162" horiz-adv-x="940" 
d="M457 624l-311 -314l313 -315l314 315zM225 311l234 232l238 -235l-235 -233z" />
    <glyph glyph-name="Identity.163" horiz-adv-x="940" 
d="M459 742l-432 -434l433 -431l432 433zM824 309l-364 -364l-365 364l364 365zM459 542l-234 -233l235 -235l234 235z" />
    <glyph glyph-name="Identity.164" horiz-adv-x="940" 
d="M462 591q-114 0 -194 -79.5t-80 -190.5q0 -114 79 -194t190 -80q114 0 194.5 79t80.5 190q0 114 -79.5 194.5t-190.5 80.5zM462 536q88 0 150.5 -64t62.5 -156q1 -88 -63 -151t-155 -63q-87 0 -150 64t-63 155q0 89 63.5 152t154.5 63z" />
    <glyph glyph-name="Identity.165" horiz-adv-x="940" 
d="M446 711q-161 -5 -273.5 -119.5t-114.5 -276.5q-4 -163 110.5 -282t277.5 -124q172 -5 295.5 114t120.5 292q-1 111 -58.5 203.5t-153 144t-204.5 48.5zM111 312q2 140 98.5 239.5t237.5 103.5q147 4 253 -96.5t106 -246.5q0 -149 -105 -251t-254 -98q-142 5 -240 106.5
t-96 242.5zM189 314q-1 -109 74 -188t182 -81q114 -4 195.5 73.5t81.5 190.5t-83 190.5t-194 73.5q-106 -3 -180 -78.5t-76 -180.5zM446 518q91 3 155.5 -58.5t64.5 -152.5q0 -89 -64.5 -150t-155.5 -60q-86 2 -144.5 64t-58.5 150q0 84 59 144t144 63z" />
    <glyph glyph-name="Identity.166" horiz-adv-x="940" 
d="M462 591q-114 0 -194 -79.5t-80 -190.5q0 -114 79 -194t190 -80q114 0 194.5 79t80.5 190q0 114 -79.5 194.5t-190.5 80.5z" />
    <glyph glyph-name="Identity.167" horiz-adv-x="940" 
d="M463 691q-161 0 -274 -110.5t-113 -268.5q0 -160 112 -272t270 -112q159 0 271.5 111.5t112.5 267.5q0 159 -111.5 271.5t-267.5 112.5zM466 -24v665q132 -3 227.5 -100t95.5 -234q0 -134 -95.5 -231t-227.5 -100z" />
    <glyph glyph-name="Identity.168" horiz-adv-x="940" 
d="M460 691q-159 0 -271 -111.5t-112 -267.5q0 -104 51 -192.5t138 -140t189 -51.5q161 0 274.5 111t113.5 268q0 160 -112.5 272t-270.5 112zM453 -24q-133 3 -228 100.5t-95 235.5q0 134 95 230t228 99v-665z" />
    <glyph glyph-name="Identity.169" horiz-adv-x="940" 
d="M471 678l-93 -270l-296 -1l237 -174l-99 -284l250 176l250 -176l-99 284l238 175h-297z" />
    <glyph glyph-name="Identity.170" horiz-adv-x="940" 
d="M471 678l-93 -270l-296 -1l237 -174l-99 -284l250 176l250 -176l-99 284l238 175h-297zM626 75l-156 109l-156 -111l63 175l-154 112h189l58 169l58 -169h189l-153 -112z" />
    <glyph glyph-name="Identity.171" horiz-adv-x="940" 
d="M717 345l73 -4q20 1 31 3t20.5 13t9.5 31q-26 -8 -88 -8q-60 3 -109 19q9 -54 63 -54zM204 345q55 0 61 54q-46 -16 -107 -19q-62 0 -88 8q0 -20 9 -31t20.5 -13t31.5 -2zM209 32h504q16 0 16 3q1 3 5.5 33.5t4.5 40.5l-70 204q-5 14 -11 21.5t-17.5 16.5t-19.5 17l-9 9
t-7 7.5t-5 6t-4.5 6.5t-2 6.5t-1.5 9v11.5v47q25 -5 45 -22.5t21 -38.5q53 -14 100 -15q54 -2 86 5q-8 66 -25.5 93t-76.5 45q-135 36 -281 36t-281 -36q-59 -18 -77 -45t-25 -93q32 -7 86 -5q47 1 100 15q1 21 20.5 38.5t44.5 22.5v-47q0 -15 -3.5 -24t-6 -12.5
t-18.5 -19.5q-8 -8 -19.5 -17t-17.5 -16.5t-11 -21.5l-70 -204q0 -10 4.5 -40.5t5.5 -33.5q0 -3 16 -3zM462 369q45 0 77.5 -33.5t32.5 -80.5t-34 -80t-83 -33q-45 1 -76 35.5t-31 82.5q0 46 33 77.5t81 31.5zM460 480q24 0 87 -7l-11 -58l-77 4l-76 -5l-11 58q72 8 88 8z
" />
    <glyph glyph-name="Identity.172" horiz-adv-x="940" 
d="M209 34h504q16 0 16 3q1 4 5.5 33t4.5 39l-70 204q-3 9 -6.5 15.5t-9 12t-9 8.5l-11.5 9.5t-12 9.5q-20 16 -24.5 25t-4.5 31v47q57 -13 66 -61q6 -37 19.5 -48.5t40.5 -11.5l73 -3q19 -1 30 1.5t19 15t4 36.5q-8 62 -29.5 92t-72.5 44q-132 38 -281 38t-281 -38
q-51 -14 -73 -44t-29 -92q-4 -24 3.5 -36.5t19 -15t30.5 -1.5l73 3q27 0 40.5 11.5t19.5 48.5q9 48 65 61v-47q0 -23 -4.5 -31.5t-23.5 -24.5q-4 -3 -12 -9.5l-11.5 -9.5t-9 -8.5t-9 -12t-6.5 -15.5l-70 -204q0 -10 4.5 -39t5.5 -33q0 -3 16 -3zM461 543q135 0 237 -27
q54 -15 78.5 -35t31.5 -63q5 -30 1 -37.5t-24 -6.5l-59 2q-19 1 -26 10t-13 41q-11 62 -117 78q-109 20 -220 0q-106 -17 -116 -78q-6 -32 -13 -41t-26 -10l-59 -2q-20 -1 -24 6.5t1 37.5q7 43 31.5 63t78.5 35q102 27 238 27zM220 67l-5 35l63 188q3 10 7.5 18t7.5 12.5
t9 10t8.5 7.5t10 7.5t10.5 7.5q31 22 31 74v46l2 1l10 -65q2 0 16 1.5t34 2.5t36 1q21 0 53 -2l32 -2l12 63h3v-50q0 -49 29 -70q2 -1 10.5 -7t11 -7.5t8.5 -7.5t9 -10.5t7.5 -12.5t7.5 -18l63 -188l-5 -35h-481zM460 447q-31 0 -55 -3l-7 35q12 4 62 4q49 0 61 -4l-7 -35
q-24 3 -54 3zM463 379q-51 0 -88 -34.5t-37 -83.5q0 -51 34 -89.5t83 -38.5q53 0 90 35.5t37 86.5q0 50 -35.5 87t-83.5 37zM462 343q34 1 59 -25t25 -62q0 -37 -26 -62t-65 -25q-34 0 -58 27t-24 64q0 35 25.5 59t63.5 24z" />
    <glyph glyph-name="Identity.173" horiz-adv-x="940" 
d="M374 427q12 0 1 -13l-2 -2q-5 -6 -9.5 -13l-6.5 -10t-2 -2l-163 5q-51 2 -67 5.5t-16 11.5q1 8 18 10.5t65 4.5q102 3 182 3zM478 212q1 -9 -8.5 -13.5t-17.5 -4.5q-78 0 -97 4q-7 2 -6.5 11.5t8.5 9.5l104 1q16 0 17 -8zM463 263q-1 -5 -15.5 -8t-24.5 -3q-81 0 -88 3
q-12 7 -7.5 14.5t18.5 7.5h89q12 0 20.5 -3.5t7.5 -10.5zM430 333q32 -8 13 -23q-3 -1 -73 -1h-47q-7 0 -12 3.5t-5.5 7t2.5 6.5q13 10 42 10q60 0 80 -3zM771 399v-174h-19v174h19zM314 227q-4 -16 -1 -28q4 -17 21 -26t36 -9q1 0 16.5 -0.5t36.5 -1.5t45 -1t47 0.5t36 2.5
q44 6 80 17.5t57 22.5l20 10h10v-19h106v234h-105v-29q-29 0 -37 5q-17 13 -35 23t-37.5 15.5t-34 9t-36 5t-30.5 2t-31 0t-26 -0.5q-196 0 -262 -4q-114 0 -117 -42q-4 -52 122 -52l82 -3q9 0 10 -2t-4 -7q-4 -3 -6 -6t-4.5 -8.5t-2.5 -11.5q0 -25 23 -40q-8 -19 6 -40
q9 -12 15 -16zM461 357q13 1 16 4l3 -5q4 -4 8.5 -9t12.5 -12.5t17 -14t23 -13.5t29 -11q30 -8 60 -9.5t34 7.5q0 13 -11.5 17.5t-38 8t-42.5 8.5q-43 15 -56 36q6 10 4 26q-1 5 -5 6.5t-9.5 0t-11.5 -3.5l-13 -4.5t-12 -3.5l-21 2q6 11 -7 14q-10 2 -18 -2.5t-18.5 -15
l-13.5 -13.5l-14 -8q12 30 33 46q19 16 46 19q49 4 96 -2.5t73 -21.5q15 -8 29 -18t21 -12q14 -5 44 -5v-120h-20q-7 -5 -24.5 -15t-61 -23.5t-90.5 -17.5h-13q4 7 3 23q-3 20 -19 34q5 13 3 23q-1 6 -4.5 11.5t-7.5 10.5t-5 6q3 20 -1 34q-4 10 -14.5 15.5t-21.5 8t-12 3.5
z" />
    <glyph glyph-name="Identity.174" horiz-adv-x="940" 
d="M544 427l182 -3q48 -2 65 -4.5t18 -10.5q0 -8 -16 -11.5t-67 -5.5l-163 -5q0 -1 -2 2l-6.5 10t-9.5 13q-10 13 -6 14q1 1 5 1zM440 212q1 8 17 8l104 -1q8 0 8.5 -9.5t-6.5 -11.5q-19 -4 -97 -4q-8 0 -17.5 4.5t-8.5 13.5zM455 263q-1 7 7.5 10.5t20.5 3.5h89
q14 0 18.5 -7.5t-7.5 -14.5q-7 -3 -88 -3q-10 0 -24.5 3t-15.5 8zM488 333q20 3 80 3q30 0 42 -10q3 -3 2.5 -6.5t-5.5 -7t-12 -3.5l-120 1q-19 15 13 23zM147 399h19v-174h-19v174zM604 227q6 4 15 16q14 21 6 40q23 15 23 40q0 12 -14 28q-6 6 3 7h4l82 3q126 0 122 52
q-3 42 -117 42q-66 4 -262 4q-4 0 -26 0.5t-31 0t-30.5 -2t-36 -5t-34 -9t-37.5 -15.5t-35 -23q-7 -5 -37 -5v29h-105v-234h106v19h10l20 -10q21 -11 57 -22.5t80 -17.5q13 -2 36 -2.5t47 -0.5t45 1t36.5 1.5t16.5 0.5q19 0 36 9t21 26q3 12 -1 28zM457 357l30 4
q-1 -1 -12 -3.5t-21.5 -8t-14.5 -15.5q-4 -14 -1 -34q-1 -1 -5 -6t-7.5 -10.5t-4.5 -11.5q-2 -10 3 -23q-16 -14 -19 -34q-1 -16 3 -23h-13q-47 4 -90.5 17.5t-61 23.5t-24.5 15h-20v120q30 0 44 5q7 2 21 12t29 18q26 15 73 21.5t96 2.5q27 -3 46 -19q21 -16 33 -46
q-6 2 -14 8l-13.5 13.5t-18.5 15t-18 2.5q-13 -3 -7 -14l-21 -2q-5 1 -12 3.5l-13 4.5t-11.5 3.5t-9.5 0t-5 -6.5q-2 -16 4 -26q-13 -21 -56 -36q-16 -5 -42.5 -8.5t-38 -8t-11.5 -17.5q4 -9 34 -7.5t60 9.5q15 4 29 11t23 13.5t17 14t12.5 12.5t8.5 9l3 5q3 -3 16 -4z" />
    <glyph glyph-name="Identity.175" horiz-adv-x="940" 
d="M774 199v93h-268v78q58 7 103.5 63t45.5 123q0 79 -58 138t-135 59q-81 0 -139 -58t-58 -135q0 -70 45.5 -126.5t103.5 -63.5v-78h-268v-93h268v-337h92v337h268zM560 555q0 -42 -28 -69t-75 -27q-44 0 -70.5 27.5t-26.5 73.5q0 45 27.5 71.5t74.5 26.5q44 0 71 -28
t27 -75z" />
    <glyph glyph-name="Identity.176" horiz-adv-x="940" 
d="M732 440l-273 327l-271 -326l62 -64l164 198v-325q-58 -8 -103.5 -64t-45.5 -123q0 -80 57.5 -137.5t134.5 -57.5q80 0 139 56.5t59 134.5q0 69 -46 126t-103 65v324l163 -200zM561 59q0 -44 -28 -71t-76 -27q-45 0 -71.5 27.5t-26.5 75.5q0 45 27.5 71.5t75.5 26.5
q45 0 72 -28t27 -75z" />
    <glyph glyph-name="Identity.177" horiz-adv-x="940" 
d="M697 -70l-9 22q-53 5 -83.5 12t-55.5 25t-35 50t-10 84q10 -10 45.5 -17.5t81.5 -7.5q58 0 95.5 39.5t37.5 97.5q0 57 -31.5 103t-86.5 92q-155 124 -187 310q-30 -186 -186 -310q-54 -46 -85.5 -91.5t-31.5 -100.5q0 -60 36.5 -100t92.5 -40q104 0 131 25q0 -52 -10 -84
t-35.5 -50t-56 -25t-83.5 -12l-9 -22h475z" />
    <glyph glyph-name="Identity.178" horiz-adv-x="940" 
d="M460 -61q9 35 23 66.5t38 65l38 52t49.5 58.5t46.5 54q57 68 91.5 130.5t33.5 127.5q-1 66 -46.5 109.5t-109.5 43.5q-55 0 -100 -27.5t-64 -72.5q-16 45 -61.5 72.5t-100.5 27.5q-67 0 -112 -44t-47 -109q-1 -65 33.5 -127.5t91.5 -130.5l46.5 -54t49.5 -59t38 -52
t38.5 -65t23.5 -66zM460 57q-13 29 -35.5 59t-65 77t-62.5 71q-35 43 -53.5 68t-38 68t-19.5 81q0 55 32 88t91 32q53 -1 94 -51.5t57 -119.5q15 69 55 118t95 52q60 3 92 -30.5t32 -91.5q0 -37 -20 -79.5t-38 -66.5t-54 -68l-48.5 -57l-47 -55t-35.5 -46t-31 -49z" />
    <glyph glyph-name="Identity.179" horiz-adv-x="940" 
d="M502 152q10 -18 50.5 -31t84.5 -13q70 0 118.5 48.5t48.5 112.5q0 67 -46.5 114t-104.5 51q-18 1 -40 0h-4q15 21 15 73q0 67 -50.5 113.5t-111.5 46.5q-63 0 -114.5 -47t-51.5 -111q0 -54 14 -73q-2 -1 -7 -0.5t-16.5 0.5t-20.5 -1q-65 -7 -107 -55t-42 -108
q0 -68 48 -115.5t117 -47.5q44 0 85 13t51 31q0 -110 -42.5 -151t-144.5 -50l-9 -22h475l-9 22q-51 4 -83.5 14.5t-57 32.5t-35 59t-10.5 94z" />
    <glyph glyph-name="Identity.180" horiz-adv-x="940" 
d="M697 -70l-9 22q-53 5 -80.5 11.5t-48.5 25.5t-28 50t-7 85q9 -8 39.5 -17.5t66.5 -9.5q59 1 96.5 40.5t37.5 97.5q0 57 -31.5 103t-86.5 91q-155 126 -187 311q-30 -185 -186 -311q-117 -96 -117 -191q0 -60 36.5 -100t92.5 -40q39 0 70 9t41 17q0 -54 -7 -85.5t-28 -50
t-49 -25t-81 -11.5l-9 -22h475zM524 -36h-128l-13 -7q34 18 45 75.5t11 180.5q-35 -54 -113 -67q-48 -12 -84.5 12.5t-36.5 70.5q0 32 8.5 58t28 49t31.5 34.5t39 33.5q52 41 95 95t53 85q10 -31 53 -85t95 -95q28 -23 39.5 -33.5t31.5 -34.5t28.5 -51t8.5 -61
q0 -43 -37 -66.5t-86 -11.5q-76 13 -111 66q0 -121 11 -178.5t44 -76.5z" />
    <glyph glyph-name="Identity.181" horiz-adv-x="940" 
d="M460 -61q9 35 23 66.5t38 65l38 52t49.5 58.5t46.5 54q125 148 125 256q1 66 -45 110.5t-111 44.5q-60 0 -107 -40t-58 -87q-10 45 -56 85.5t-104 40.5q-67 0 -113.5 -43.5t-46.5 -107.5q0 -112 125 -260q9 -11 46.5 -53t50 -59l37.5 -51.5t39 -65.5t23 -66z" />
    <glyph glyph-name="Identity.182" horiz-adv-x="940" 
d="M520 158q17 -21 49 -35.5t67 -14.5q71 0 119.5 48.5t48.5 112.5q0 67 -46.5 114t-104.5 51q-18 1 -40 0h-4q15 21 15 73q0 67 -50.5 113.5t-111.5 46.5q-63 0 -114.5 -47t-51.5 -111q0 -54 14 -73q-2 -1 -7 -0.5t-16.5 0.5t-20.5 -1q-65 -7 -107 -55t-42 -108
q0 -68 48 -115.5t117 -47.5q36 0 69.5 15.5t47.5 33.5q1 -80 -15.5 -122.5t-51 -60t-101.5 -23.5l-9 -22h475l-9 22q-98 8 -133 49t-35 157zM390 410q-47 39 -47 96q0 47 34.5 81.5t84.5 34.5q47 0 81 -35.5t34 -84.5q0 -53 -49 -94l37 -48q31 27 73 27q49 1 84 -34.5
t35 -85.5q0 -47 -35.5 -80t-86.5 -33q-33 -1 -61 18t-42 50h-54q0 -109 11 -171t42 -87l-8 6h-126l-8 -6q32 25 43.5 88t11.5 170h-57q-32 -67 -107 -67q-48 0 -81.5 34t-33.5 84q0 47 34.5 81.5t84.5 34.5q35 0 69 -25z" />
    <glyph glyph-name="Identity.183" horiz-adv-x="940" 
d="M351 688q-5 -1 -9.5 -13t-11 -31t-12.5 -30q-71 -136 -22 -260q37 -98 -8 -216q-10 -31 -8.5 -56.5t9 -42.5t14.5 -16q9 2 12.5 7.5t4.5 13.5t6 23.5t15 30.5q26 42 41.5 91t11.5 81q-3 35 -24.5 124t-14.5 125q7 32 10.5 60t3.5 48t-2 34.5t-6.5 21t-9.5 5.5zM270 261
q-27 -5 -59.5 -16t-70 -30t-62 -51.5t-24.5 -71.5q0 -49 38 -87.5t99.5 -60.5t131.5 -33t142 -11q68 0 136 11t129 33.5t98.5 61t37.5 88.5q0 31 -13.5 57.5t-33.5 44t-45 31.5t-46 21t-39 10q-14 3 -18 -10t11 -17q37 -11 74.5 -41t37.5 -76q0 -37 -54.5 -66t-127.5 -42
t-146 -14q-83 0 -156.5 14.5t-122.5 44t-49 68.5q0 30 32 57.5t59.5 39t44.5 16.5q12 3 14.5 11t-3.5 13.5t-15 4.5zM481 737q-8 0 -10.5 -15.5t-6 -44.5t-12.5 -52q-2 -4 -11.5 -25t-13 -30t-10.5 -30t-7.5 -37t-0.5 -38t5.5 -45t16.5 -48q44 -105 -2 -218
q-26 -64 -11 -119q9 -23 18 -22q8 3 11.5 12.5l12 31.5t22.5 45q22 36 41 93.5t12 98.5q-5 34 -16 74.5l-17 61.5t-8.5 58t9.5 64q13 47 11 88.5t-12.5 69.5t-20.5 27zM622 688q-5 -1 -10 -13t-11.5 -31t-12.5 -30q-70 -138 -22 -260q38 -98 -7 -216q-10 -31 -8.5 -56.5
t8.5 -42.5t14 -16q11 2 14 10t7.5 27t16.5 38q26 42 41.5 91t12.5 81q-3 33 -25 123t-15 126q7 32 10.5 60t4 48t-1.5 34.5t-6.5 21t-9.5 5.5z" />
    <glyph glyph-name="Identity.184" horiz-adv-x="940" 
d="M488 123l-46 2q-59 -6 -109 -43q-59 -48 -59 -106q0 -45 28 -65q26 -23 74 -23q64 -2 122 42q59 51 59 103v700h-69v-610z" />
    <glyph glyph-name="Identity.185" horiz-adv-x="940" 
d="M431 118q-12 3 -40 3q-58 0 -116 -47q-58 -54 -58 -103q0 -44 30 -67q28 -22 73 -22q66 0 121 41q59 53 59 103v444q12 0 37.5 -19.5t48.5 -48.5q35 -37 37 -109q2 -33 -8.5 -72.5t-23 -67t-34.5 -70.5h62q74 125 74 230q0 82 -62 163l-28 29t-35 38.5t-28 35.5
q-10 12 -17 24.5t-12 31t-7 26.5t-6 34.5t-5 30.5h-62v-608z" />
    <glyph glyph-name="Identity.186" horiz-adv-x="940" 
d="M386 451l1 34l315 71v-35zM701 244l-41 5q-57 -2 -114 -45q-57 -42 -57 -104q0 -39 28 -66q26 -23 74 -23q68 0 121 43q56 49 56 108l1 519l-449 -98v-419q-8 3 -41 0q-61 -3 -114 -44q-58 -50 -58 -104q0 -39 28 -66q25 -24 74 -24q64 0 122 43q55 45 55 108l1 263
l314 69v-165z" />
    <glyph glyph-name="Identity.187" horiz-adv-x="940" 
d="M356 -123q89 92 160 151q117 99 118 195q2 50 -31 90.5t-80 41.5q-59 5 -93 -19v355h-73zM430 251q27 36 61 32q36 -6 36 -68q0 -34 -21 -73t-40 -61t-36 -38v208z" />
    <glyph glyph-name="Identity.188" horiz-adv-x="310" 
d="M-12 81q27 -7 125 -90q31 -28 100 -111l83 93q-73 71 -108 98q-100 72 -133 81z" />
    <glyph glyph-name="Identity.189" horiz-adv-x="281" 
d="M149 96q-47 0 -82.5 -36t-35.5 -82t35.5 -82t82.5 -36t82.5 36t35.5 82t-35.5 82t-82.5 36zM149 15q37 0 37 -37t-37 -37t-37 37t37 37z" />
    <glyph glyph-name="Identity.190" horiz-adv-x="940" 
d="M318 151l177 275l-97 58l-150 -289zM495 151l178 275l-97 58l-150 -289z" />
    <glyph glyph-name="Identity.191" horiz-adv-x="484" 
d="M138 310l269 431l-86 45l-292 -476l292 -474l82 47z" />
    <glyph glyph-name="Identity.192" horiz-adv-x="484" 
d="M294 310l-265 -427l82 -47l292 474l-292 476l-86 -45z" />
    <glyph glyph-name="Identity.193" horiz-adv-x="455" 
d="M329 754h-85l-195 -444l195 -444h86l-194 444zM430 754h-85l-194 -444l194 -444h86l-193 444z" />
    <glyph glyph-name="Identity.194" horiz-adv-x="455" 
d="M135 754l192 -444l-193 -444h86l194 444l-194 444h-85zM34 754l192 -444l-193 -444h85l195 444l-195 444h-84z" />
    <glyph glyph-name="Identity.195" horiz-adv-x="348" 
d="M41 330h84v357h220v76h-304v-433z" />
    <glyph glyph-name="Identity.196" horiz-adv-x="348" 
d="M328 287h-83v-357h-220v-75h303v432z" />
    <glyph glyph-name="Identity.197" horiz-adv-x="358" 
d="M167 327v304h173v131h-308v-435h135zM106 392h-12v310h180v-9h-168v-301z" />
    <glyph glyph-name="Identity.198" horiz-adv-x="358" 
d="M196 290v-304h-173v-131h308v435h-135zM257 225h13v-310h-181v10h168v300z" />
    <glyph glyph-name="Identity.199" horiz-adv-x="450" 
d="M451 -182q-141 91 -215 217.5t-74 274.5t74 274.5t214 216.5h-412v-983h413z" />
    <glyph glyph-name="Identity.200" horiz-adv-x="450" 
d="M-1 -181h413v983h-412q140 -90 214 -216.5t74 -274.5t-74 -274.5t-215 -217.5z" />
    <glyph glyph-name="Identity.201" horiz-adv-x="940" 
d="M108 178h704v85h-704v-85zM108 356h704v85h-704v-85z" />
    <glyph glyph-name="Identity.202" horiz-adv-x="358" 
d="M285 778l-233 -149v-641l233 -148v98l-147 91v559l147 94v96z" />
    <glyph glyph-name="Identity.203" horiz-adv-x="358" 
d="M17 778v-96l147 -94v-559l-147 -91v-98l232 148v641z" />
    <glyph glyph-name="Identity.204" 
d="M682 513h-496v-89h398v-338h98v427z" />
    <glyph glyph-name="Identity.205" 
d="M459 513v-88h231v-337h96v425h-327zM104 513v-88h241v-337h96v425h-337z" />
    <glyph glyph-name="Identity.206" 
d="M417 89v413h-327v-95h230v-318h97zM451 91q39 12 78.5 47t61.5 78l129 -134l67 69l-157 163q10 33 10 81v107h-102v-104q0 -78 -37 -141.5t-115 -91.5z" />
    <glyph glyph-name="Identity.207" 
d="M684 87v91h-400v333h-97v-424h497z" />
    <glyph glyph-name="Identity.208" 
d="M404 102v32l24 -31q111 41 189 129l139 -122l67 68l-149 132q60 94 62 192h-319v-91h199q-14 -49 -71.5 -116t-140.5 -98v1h-189l-3 295h-96l3 -391h285z" />
    <glyph glyph-name="Identity.209" 
d="M426 108v93h-227v287h-96v-380h323zM705 427v87q-86 -8 -143 -3q-52 3 -103 26l-33 -72q50 -30 127 -39q37 -2 49 -2t50 1.5t53 1.5zM788 312v85h-427v-85h82q-3 -2 -8 -13.5t-10 -32t-5 -39.5q-1 -62 44.5 -101.5t112.5 -40.5t113.5 39.5t47.5 104.5q0 19 -5 38.5
t-10 31t-8 13.5h73zM641 229q0 -27 -17 -43t-47 -15q-28 1 -44.5 16t-16.5 42q0 28 17.5 43.5t46.5 14.5q61 -2 61 -58z" />
    <glyph glyph-name="Identity.210" 
d="M684 88v91h-402v239h402v92h-499v-422h499z" />
    <glyph glyph-name="Identity.211" 
d="M120 89h592v91h-220v241h221v92h-318v-333h-177v241h159v92h-257v-424z" />
    <glyph glyph-name="Identity.212" 
d="M680 89v93h-390v75h366v253h-473v-90h371v-74h-365v-257h491z" />
    <glyph glyph-name="Identity.213" 
d="M724 89v421h-278v-93h179v-328h99zM483 89v94h-258v74h200v253h-306v-89h206v-75h-200v-257h358z" />
    <glyph glyph-name="Identity.214" 
d="M468 88v95h-243v74h210v253h-316v-89h216v-75h-210v-258h343zM784 88v424h-301v-424h301zM685 179h-105v242h105v-242z" />
    <glyph glyph-name="Identity.215" 
d="M478 88v95h-253v74h210v253h-316v-89h216v-75h-210v-258h353zM788 89v421h-96v-141h-100v141h-96v-421h292zM692 180h-100v98h100v-98z" />
    <glyph glyph-name="Identity.216" 
d="M473 88v95h-258v74h210v253h-316v-89h216v-75h-210v-258h358zM516 90q39 12 78.5 47t61.5 78l129 -134l67 69l-157 163q10 33 10 81v117h-102v-114q0 -78 -37 -141.5t-115 -91.5z" />
    <glyph glyph-name="Identity.217" 
d="M483 88v95h-258v74h210v253h-316v-89h216v-75h-210v-258h358zM786 177h-193v84h193v87h-193v76h193v89h-286v-424h286v88z" />
    <glyph glyph-name="Identity.218" 
d="M468 88v95h-253v74h210v253h-316v-89h216v-75h-210v-258h353zM826 86v91h-56v245h46v90h-327v-90h45v-245h-46v-91h338zM672 177h-40v245h40v-245z" />
    <glyph glyph-name="Identity.219" 
d="M463 88v95h-258v74h210v253h-316v-89h216v-75h-210v-258h358zM767 430v86q-84 -10 -142 -3q-56 5 -104 26l-33 -73q64 -35 128 -38q68 -7 151 2zM850 314v85h-416v-85h71q-3 -2 -8 -13.5t-10 -32t-5 -39.5q-1 -62 44.5 -101.5t112.5 -40.5t113.5 39.5t47.5 104.5
q0 19 -5 38.5t-10 31t-8 13.5h73zM703 231q0 -27 -17 -43t-47 -15q-28 1 -44.5 16t-16.5 42q0 28 17.5 43.5t46.5 14.5q61 -2 61 -58z" />
    <glyph glyph-name="Identity.220" 
d="M683 87v425h-496v-425h496zM586 178h-302v242h302v-242z" />
    <glyph glyph-name="Identity.221" 
d="M680 79v443h-97v-155h-285v155h-97v-443h479zM583 170h-285v106h285v-106z" />
    <glyph glyph-name="Identity.222" 
d="M642 168h-143v112h143v-112zM400 168h-144v112h144v-112zM159 77h580v456h-97v-162h-143v162h-99v-162h-144v162h-97v-456z" />
    <glyph glyph-name="Identity.223" 
d="M469 87v418h-99v-140h-144v140h-99v-418h342zM370 182h-144v90h144v-90zM506 90q39 12 78.5 47t61.5 78l129 -134l67 69l-157 163q10 33 10 81v117h-102v-114q0 -78 -37 -141.5t-115 -91.5z" />
    <glyph glyph-name="Identity.224" 
d="M208 53q86 35 154.5 96.5t105.5 130.5l270 -226l65 72l-294 246q18 49 18 113v72h-101v-66q0 -117 -81 -216t-202 -149z" />
    <glyph glyph-name="Identity.225" 
d="M126 38q52 27 103 78.5t78 111.5l80 -100l-25 -16l70 -74q50 26 98 76.5t75 110.5l168 -181l71 66l-202 223q11 49 11 103v97h-103v-93q0 -61 -21.5 -129t-68.5 -118l-113 142q11 50 11 101v97h-103v-93q0 -37 -9 -77t-29.5 -86t-62.5 -89.5t-100 -73.5z" />
    <glyph glyph-name="Identity.226" 
d="M684 302q0 98 -74 159.5t-179 61.5q-102 0 -176 -62.5t-74 -159.5q0 -96 69.5 -158.5t180.5 -62.5q110 0 181.5 62.5t71.5 159.5zM580 301q0 -57 -41 -94.5t-108 -37.5q-68 0 -108 37t-40 95q0 56 41 93t107 37q64 0 106.5 -38.5t42.5 -91.5z" />
    <glyph glyph-name="Identity.227" 
d="M671 527h-497v-89h347q-39 -77 -162.5 -173.5t-263.5 -134.5l63 -79q160 43 298 165l266 -170l64 74l-257 166q117 117 142 241z" />
    <glyph glyph-name="Identity.228" 
d="M294 207l147 -157q87 37 175 155l160 -157l68 76l-174 172q55 101 69 226h-299v-91h175q-5 -33 -50.5 -120.5t-105.5 -130.5l-105 115q67 106 79 227h-308v-91h180q-5 -19 -18 -49.5t-40.5 -78t-78 -96.5t-112.5 -82l65 -76q102 54 173 158z" />
    <glyph glyph-name="Identity.229" 
d="M710 429h-499v-90h334q-54 -66 -159 -126t-253 -90l58 -83q168 27 310 127l257 -131l65 74l-238 122q105 92 125 197zM633 488v92q-112 -8 -229 0q-67 8 -108 28l-32 -80q43 -36 130 -40q105 -8 239 0z" />
    <glyph glyph-name="Identity.230" 
d="M681 512h-494v-89h396l-1 -102h-396v-89h396v-154h99v434z" />
    <glyph glyph-name="Identity.231" 
d="M282 428h401v90h-496v-439h504v90h-409v92h391v88h-391v79z" />
    <glyph glyph-name="Identity.232" 
d="M500 421v-244h-150q2 51 -2 113q-5 75 -40 128l-85 -37q25 -38 29 -100q2 -38 2 -104h-110v-91h561v91h-108v244h100v91h-545v-91h348z" />
    <glyph glyph-name="Identity.233" 
d="M599 528v91q-110 -14 -226 -1q-65 7 -106 25l-31 -77q63 -33 127 -39q129 -12 236 1zM756 370v90h-642v-90h146q4 3 1 -1q-2 -2 -7 -9q-7 -8 -8 -10q-27 -34 -33 -83.5t14.5 -100t65.5 -80.5q84 -50 177.5 -36t140.5 74q45 67 34.5 137.5t-66.5 113.5l-73 -64
q41 -25 46.5 -66.5t-22.5 -68.5q-34 -40 -91.5 -42.5t-94.5 31.5q-32 31 -34.5 71.5t20.5 69.5q47 64 152 64h274z" />
    <glyph glyph-name="Identity.234" 
d="M417 729h-97v-838h97v405h212v83h-212v350z" />
    <glyph glyph-name="Identity.235" 
d="M597 -109v838h-90v-330h-134v321h-90v-810h90v406h134v-425h90z" />
    <glyph glyph-name="Identity.236" 
d="M629 158v82h-212v139h212v83h-212v267h-97v-838h97v267h212z" />
    <glyph glyph-name="Identity.237" 
d="M597 -109v838h-90v-258h-134v249h-90v-810h90v257h134v-276h90zM507 249h-134v139h134v-139z" />
    <glyph glyph-name="Identity.238" 
d="M564 -109v838h-97v-350h-208v-83h208v-405h97z" />
    <glyph glyph-name="Identity.239" 
d="M467 -90v810h-93v-321h-179v-84h179v-405h93zM629 -109v838h-93v-838h93z" />
    <glyph glyph-name="Identity.240" 
d="M564 -109v838h-97v-276h-208v-83h208v-130h-208v-83h208v-266h97z" />
    <glyph glyph-name="Identity.241" 
d="M467 -90v810h-93v-259h-179v-82h179v-139h-179v-83h179v-247h93zM629 -109v838h-93v-838h93z" />
    <glyph glyph-name="Identity.242" 
d="M859 75v83h-370v386h-98v-386h-370v-83h838z" />
    <glyph glyph-name="Identity.243" 
d="M593 130v81q-132 -22 -223 -22v281h-99v-285l-231 -1v-81q214 0 327 3q96 4 226 24zM613 729v-838h96v405h141v83h-141v350h-96z" />
    <glyph glyph-name="Identity.244" 
d="M507 137v80q-117 -21 -195 -21v284h-97v-285h-175v-85l215 3q132 2 252 24zM526 720v-810h90v406h77v-425h89v838h-89v-330h-77v321h-90z" />
    <glyph glyph-name="Identity.245" 
d="M661 729v-838h97v838h-97zM641 130v81q-132 -22 -227 -22v281h-99v-285l-239 -1v-81q221 0 335 3q102 4 230 24z" />
    <glyph glyph-name="Identity.246" 
d="M859 75v83h-236v386h-99v-386h-173v386h-99v-386h-231v-83h838z" />
    <glyph glyph-name="Identity.247" 
d="M859 267v84h-838v-84h371v-376h96v376h371z" />
    <glyph glyph-name="Identity.248" 
d="M794 -109v838h-97v-527h-231v-84h231v-227h97zM656 309v86q-71 -19 -226 -24q-21 0 -182.5 -0.5t-189.5 -1.5v-82h214v-359h96v361l73 1q148 8 215 19z" />
    <glyph glyph-name="Identity.249" 
d="M647 -90v810h-94v-517h-164v-83h164v-210h94zM804 -109v838h-95v-838h95zM516 306v84q-55 -15 -156 -20q-20 0 -153.5 -0.5t-157.5 -1.5v-84l190 1v-357h97v361l24 1q100 5 156 16z" />
    <glyph glyph-name="Identity.250" 
d="M678 313v82q-135 -25 -273 -25h-338v-83h262v-359h97v360q90 0 252 25zM697 729v-838h97v838h-97z" />
    <glyph glyph-name="Identity.251" 
d="M859 268v84h-838v-84h233v-376h96v376h180v-376h96v376h233z" />
    <glyph glyph-name="Identity.252" 
d="M859 89v82h-838v-82h838z" />
    <glyph glyph-name="Identity.253" 
d="M678 177v82q-146 -27 -251 -34q-37 -1 -187.5 -1.5t-172.5 -1.5v-82q257 0 369 5q103 5 242 32zM697 729v-838h97v838h-97z" />
    <glyph glyph-name="Identity.254" 
d="M488 -109v838h-96v-838h96z" />
    <glyph glyph-name="Identity.255" horiz-adv-x="940" 
d="M204 -50q-97 46 -97 244v222q0 83 24 146t73 89v63q-180 -43 -188 -280v-211q0 -42 2.5 -75.5t14 -78.5t30.5 -78t55 -62t86 -42v63zM742 -113q188 51 188 333v214q-13 238 -188 280v-63q47 -26 71.5 -89.5t25.5 -146.5v-221q-5 -198 -97 -244v-63zM815 293h-681v-89h293
v-283h93v283h295v89zM567 482q71 63 95 164h-406v-87h257q-36 -45 -111.5 -89.5t-203.5 -70.5l54 -74q136 29 237 100l196 -105l57 75z" />
    <glyph glyph-name="Identity.256" horiz-adv-x="940" 
d="M885 358q-20 159 -140.5 271.5t-280.5 112.5q-122 0 -223 -60t-158.5 -169t-51.5 -244h217v81h-136q3 130 102.5 220t248.5 90q129 0 226 -87.5t118 -214.5h78zM453 -53q-133 0 -227.5 84.5t-113.5 215.5h-82q24 -164 142 -271.5t278 -107.5q183 0 307.5 127t128.5 311
v34h-215v-78h128q-6 -125 -86 -209q-50 -53 -119 -79.5t-141 -26.5zM460 328l235 257l-116 -2l-199 -216v217h-96v-540h96v237l228 -237l123 -1z" />
    <glyph glyph-name="Identity.257" horiz-adv-x="940" 
d="M353 -73h76v126h-76v-126zM247 181q0 -50 -21.5 -84t-61.5 -34q-42 0 -42 66q0 104 125 96v-44zM865 -73h76v126h-76v-126zM247 26v-35h100v349q0 77 -38 126.5t-118 49.5t-121 -47.5t-41 -115.5h113q0 44 11 62t38 18q56 0 56 -91v-40q-33 4 -70.5 -2.5t-74.5 -24.5
t-61.5 -58t-24.5 -96q0 -63 30.5 -102t79.5 -39q37 0 66.5 10.5t40 20t14.5 15.5zM677 440q-3 15 -6.5 24.5t-12 23.5t-25 21t-39.5 7q-26 0 -44 -12.5t-25 -25.5v26h-87v-513h87v212v13v42t1.5 43.5t4.5 46t8.5 36.5t14.5 28.5t21 9.5q6 0 10.5 -2.5t7.5 -8t5.5 -12
t4 -16.5t2 -18.5t0.5 -21.5v-22.5v-24.5v-24v-281h86v210v25q0 46 0.5 70.5t5.5 59t17.5 50.5t32.5 16q9 0 14 -9.5t7 -32.5t2.5 -38t0.5 -50v-20v-281h87v359q0 83 -20.5 124.5t-69.5 41.5q-23 0 -41.5 -10t-28.5 -25t-15 -25t-6 -16z" />
    <glyph glyph-name="Identity.258" horiz-adv-x="940" 
d="M454 142q-70 -76 -139 -76q-37 0 -67 12t-48.5 29.5t-32 45.5t-20.5 51.5t-10.5 57.5t-4 53t-0.5 48q0 281 157 281q45 0 62.5 -31t19.5 -109h110q-11 229 -190 229q-70 0 -123.5 -30.5t-84 -83.5t-45.5 -116t-15 -135q0 -75 12.5 -139.5t41 -123.5t84.5 -93.5t135 -34.5
q97 0 158 48v117zM660 -20q87 0 137 73.5t50 192.5q0 121 -50 195t-139 74q-88 0 -136.5 -79t-48.5 -191q0 -124 49 -194.5t138 -70.5zM579 245q0 88 17 137.5t61 49.5q82 0 82 -186q0 -183 -78 -183q-82 0 -82 182zM808 -77h124v124h-124v-124z" />
    <glyph glyph-name="Identity.259" horiz-adv-x="940" 
d="M132 254q0 91 17.5 136t60.5 45q36 0 55.5 -53.5t19.5 -136.5q0 -178 -72 -178q-81 0 -81 187zM677 440q-3 15 -6.5 24.5t-12 23.5t-25 21t-39.5 7q-45 0 -69 -38v26h-87v-513h87v212v13v42t1.5 43.5t4.5 46t8.5 36.5t14.5 28.5t21 9.5q6 0 10.5 -2.5t7.5 -8t5.5 -12
t4 -16.5t2 -18.5t0.5 -21.5v-22.5v-24.5v-24v-281h86v210v25q0 46 0.5 70.5t5.5 59t17.5 50.5t32.5 16q9 0 14 -9.5t7 -32.5t2.5 -38t0.5 -50v-20v-281h87v359q0 83 -20.5 124.5t-69.5 41.5q-23 0 -41.5 -10t-28.5 -25t-15 -25t-6 -16zM126 18q28 -35 87 -35
q60 0 101.5 39.5t58.5 96.5t17 125q0 128 -47.5 201.5t-124.5 73.5q-32 0 -57.5 -14t-34.5 -30v32h-97v-718h97v229zM353 -73h76v126h-76v-126zM865 -73h76v126h-76v-126z" />
    <glyph glyph-name="Identity.260" 
d="M79 723v-101h262q-23 -88 -106.5 -170.5t-215.5 -134.5l71 -76q168 67 268.5 191.5t113.5 290.5h-393zM891 555h-157v233h-107v-567h107v232h157v102zM728 194h-284v-101h177v-260h107v361zM428 194h-306v-101h200v-260h106v361z" />
    <glyph glyph-name="Identity.261" 
d="M77 733v-101h262q-22 -86 -105.5 -164t-216.5 -131l71 -76q170 67 269.5 187.5t112.5 284.5h-393zM890 582h-157v206h-107v-492h107v184h157v102zM735 261h-106v-121h-92v121h-106v-416h304v416zM416 -53h-208v60h190v255h-302v-100h193v-58h-191v-260h318v103zM537 -55
v94h92v-94h-92z" />
    <glyph glyph-name="Identity.262" 
d="M77 733v-101h262q-22 -86 -105.5 -164t-216.5 -131l71 -76q170 67 269.5 187.5t112.5 284.5h-393zM890 582h-157v206h-107v-492h107v184h157v102zM499 -150q77 25 137 118l123 -128l74 74l-151 156q11 41 11 82v109h-109v-87q0 -160 -120 -228h-213v61h201v256h-311v-100
h202v-59h-200v-260h333v31z" />
    <glyph glyph-name="Identity.263" 
d="M100 733v-101h236q-53 -201 -296 -295l71 -79q162 64 251.5 185t103.5 290h-366zM843 788h-106v-204h-110v183h-106v-458h106v175h110v-193h106v497zM787 268q-79 -7 -146 -3q-59 7 -106 27l-35 -79q46 -29 131 -44q73 -5 156 3v96zM874 149h-444v-95h94
q-15 -10 -25.5 -33.5t-10.5 -46.5q-1 -7 1 -19h-203v264h-106v-367h324v57q20 -37 60.5 -58.5t90.5 -21.5q71 -1 119.5 40.5t49.5 106.5q0 43 -35 78h85v95zM717 -24q0 -22 -18.5 -37.5t-43.5 -14.5q-24 1 -41.5 15.5t-17.5 36.5q0 25 18.5 39.5t43.5 13.5t42 -15.5
t17 -37.5z" />
    <glyph glyph-name="Identity.264" 
d="M97 723v-101h236q-55 -212 -296 -305l71 -79q161 64 251 189.5t104 295.5h-366zM842 788h-106v-235h-109v214h-107v-524h107v209h109v-227h106v563zM811 -50h-390v138h380v100h-488v-339h498v101z" />
    <glyph glyph-name="Identity.265" 
d="M100 733v-101h236q-53 -201 -296 -295l71 -79q162 64 251.5 185t103.5 290h-366zM842 789h-106v-226h-110v204h-106v-487h106v182h110v-198h106v525zM667 39q93 89 118 182h-476v-100h290q-61 -65 -156 -117t-206 -77l68 -86q139 31 273 125l235 -131l64 84z" />
    <glyph glyph-name="Identity.266" 
d="M100 733v-101h236q-53 -201 -296 -295l71 -79q162 64 251.5 185t103.5 290h-366zM843 788h-106v-204h-110v183h-106v-458h106v175h110v-193h106v497zM800 99h-360v50h371v100h-478v-405h486v99h-379v54h360v102z" />
    <glyph glyph-name="Identity.267" 
d="M97 723v-101h236q-55 -212 -296 -305l71 -79q161 64 251 189.5t104 295.5h-366zM842 789h-106v-226h-110v204h-106v-487h106v182h110v-198h106v525zM835 -46h-96v158h86v100h-524v-100h87v-158h-96v-101h543v101zM496 -46v158h135v-158h-135z" />
    <glyph glyph-name="Identity.268" 
d="M79 723v-101h262q-23 -88 -106.5 -170.5t-215.5 -134.5l71 -76q168 67 268.5 191.5t113.5 290.5h-393zM884 438h-152v96h152v100h-152v154h-105v-565h105v115h152v100zM736 -50h-391v138h380v100h-488v-339h499v101z" />
    <glyph glyph-name="Identity.269" 
d="M77 733v-101h262q-22 -86 -105.5 -164t-216.5 -131l71 -76q170 67 269.5 187.5t112.5 284.5h-393zM883 481h-152v78h152v100h-152v129h-105v-493h105v86h152v100zM738 264h-270v-103h161v-317h109v420zM502 -53h-257v60h207v257h-321v-100h212v-58h-207v-262h366v103z
" />
    <glyph glyph-name="Identity.270" 
d="M77 733v-101h262q-22 -86 -105.5 -164t-216.5 -131l71 -76q170 67 269.5 187.5t112.5 284.5h-393zM883 481h-152v78h152v100h-152v129h-105v-493h105v86h152v100zM729 270q-79 -7 -146 -3q-60 8 -106 28l-35 -79q46 -29 131 -44q73 -5 156 3v95zM809 141h-402v-93h61
q-30 -32 -30 -73q-1 -64 45 -104.5t118 -41.5q71 -1 116.5 40t46.5 107q0 46 -30 72h75v93zM435 -53h-223v60h182v254h-295v-99h186v-58h-184v-260h334v103zM658 -24q0 -22 -17.5 -37.5t-41.5 -14.5q-23 1 -38.5 15.5t-15.5 36.5q0 25 16 39.5t41 13.5q24 -1 40 -15.5
t16 -37.5z" />
    <glyph glyph-name="Identity.271" 
d="M79 723v-101h262q-23 -88 -106.5 -170.5t-215.5 -134.5l71 -76q168 67 268.5 191.5t113.5 290.5h-393zM884 438h-152v96h152v100h-152v154h-105v-565h105v115h152v100zM720 196h-478v-345h478v345zM352 -49v144h260v-144h-260z" />
    <glyph glyph-name="Identity.272" 
d="M77 733v-101h262q-22 -86 -105.5 -164t-216.5 -131l71 -76q170 67 269.5 187.5t112.5 284.5h-393zM883 478h-152v76h152v101h-152v133h-105v-522h105v112h152v100zM724 230h-108v-104h-261v104h-109v-384h478v384zM355 -54v79h261v-79h-261z" />
    <glyph glyph-name="Identity.273" 
d="M79 723v-101h262q-23 -88 -106.5 -170.5t-215.5 -134.5l71 -76q168 67 268.5 191.5t113.5 290.5h-393zM884 438h-152v96h152v100h-152v154h-105v-565h105v115h152v100zM650 78q7 33 8 67v40h-111v-37q0 -51 -22.5 -98.5t-63.5 -78.5l-95 95q6 17 11 79v40h-113v-37
q0 -71 -44.5 -131.5t-130.5 -86.5l72 -87q104 45 155 121l136 -127q44 14 86.5 50t70.5 87l150 -126l71 75z" />
    <glyph glyph-name="Identity.274" 
d="M97 723v-101h236q-55 -212 -296 -305l71 -79q161 64 251 189.5t104 295.5h-366zM842 788h-106v-129h-110v108h-106v-517h106v117h110v-137h106v558zM736 467h-110v91h110v-91zM810 196h-478v-345h478v345zM442 -49v144h260v-144h-260z" />
    <glyph glyph-name="Identity.275" 
d="M100 733v-101h236q-53 -201 -296 -295l71 -79q162 64 251.5 185t103.5 290h-366zM842 264v524h-105v-125h-111v103h-105v-494h105v98h111v-106h105zM737 471h-111v93h111v-93zM823 234h-108v-104h-261v104h-109v-388h478v388zM454 -54v83h261v-83h-261z" />
    <glyph glyph-name="Identity.276" horiz-adv-x="850" 
d="M79 723v-101h262q-23 -88 -106.5 -170.5t-215.5 -134.5l71 -76q168 67 268.5 191.5t113.5 290.5h-393zM769 788h-106v-236h-200v-101h200v-186h106v523zM486 216h-317v-102h207v-270h110v57l47 -57q35 12 72.5 44t66.5 78l122 -126l75 71l-152 158q11 42 11 83v64h-110
v-64q0 -153 -132 -214v278z" />
    <glyph glyph-name="Identity.277" horiz-adv-x="850" 
d="M77 733v-101h262q-22 -86 -105.5 -164t-216.5 -131l71 -76q170 67 269.5 187.5t112.5 284.5h-393zM759 788h-107v-226h-189v-101h189v-165h107v492zM707 56q59 98 59 192h-322v-97h192q-17 -50 -66 -106t-124 -89h-186v266h-107v-369h293v25l22 -28q99 38 174 118
l129 -119l75 79z" />
    <glyph glyph-name="Identity.278" horiz-adv-x="850" 
d="M77 733v-101h262q-22 -86 -105.5 -164t-216.5 -131l71 -76q170 67 269.5 187.5t112.5 284.5h-393zM759 788h-107v-226h-189v-101h189v-165h107v492zM768 263h-270v-103h161v-316h109v419zM532 -53h-257v60h207v256h-321v-100h212v-57h-207v-262h366v103z" />
    <glyph glyph-name="Identity.279" horiz-adv-x="850" 
d="M77 733v-101h262q-22 -86 -105.5 -164t-216.5 -131l71 -76q170 67 269.5 187.5t112.5 284.5h-393zM759 788h-107v-226h-189v-101h189v-163q-108 -2 -181 2q-52 5 -106 28l-34 -84q44 -34 129 -45q105 -6 214 0v97h85v492zM642 9q82 69 119 158h-485v-96h278
q-126 -104 -348 -145l66 -87q145 27 273 103l233 -103l70 80z" />
    <glyph glyph-name="Identity.280" 
d="M97 723v-101h236q-55 -212 -296 -305l71 -79q168 67 260 203h179v-190h103v517h-103v-226h-126q32 78 42 181h-366zM843 789h-106v-557h106v557zM803 180h-490v-101h383v-246h107v347z" />
    <glyph glyph-name="Identity.281" 
d="M97 723v-101h236q-55 -212 -296 -305l71 -79q168 67 260 203h179v-190h103v517h-103v-226h-126q32 78 42 181h-366zM843 789h-106v-557h106v557zM811 -50h-390v138h380v100h-488v-339h498v101z" />
    <glyph glyph-name="Identity.282" 
d="M100 733v-101h236q-53 -201 -296 -295l71 -79q187 73 278 225h158v-173h103v456h-103v-184h-112q23 67 31 151h-366zM843 292v497h-106v-497h106zM800 99h-360v50h371v100h-478v-405h486v99h-379v54h360v102z" />
    <glyph glyph-name="Identity.283" 
d="M100 733v-101h236q-53 -201 -296 -295l71 -79q187 73 278 225h158v-173h103v456h-103v-184h-112q23 67 31 151h-366zM843 292v497h-106v-497h106zM700 292q-89 -5 -214 0q-42 2 -106 27l-34 -77q51 -35 130 -44q136 -4 224 0v94zM635 -8q0 -32 -29 -51t-66 -19
q-36 0 -66.5 19t-30.5 51t30 50.5t66 18.5q37 0 66.5 -18.5t29.5 -50.5zM365 69q-38 -27 -38 -78q0 -76 63 -119.5t152 -43.5q88 0 149 43t61 121q0 21 -11.5 44t-27.5 33h120v93h-586v-93h118z" />
    <glyph glyph-name="Identity.284" horiz-adv-x="850" 
d="M77 733v-101h262q-22 -86 -105.5 -164t-216.5 -131l71 -76q170 67 269.5 187.5t112.5 284.5h-393zM769 290v498h-104v-128h-206v-100h206v-68h-206v-99h206v-103h104zM768 263h-270v-103h161v-316h109v419zM532 -53h-257v60h207v256h-321v-100h212v-57h-207v-262h366v103
z" />
    <glyph glyph-name="Identity.285" horiz-adv-x="850" 
d="M77 733v-101h262q-22 -86 -105.5 -164t-216.5 -131l71 -76q170 67 269.5 187.5t112.5 284.5h-393zM769 290v498h-104v-128h-206v-100h206v-68h-206v-99h206v-103h104zM528 -150q77 25 137 118l123 -128l74 74l-151 156q11 41 11 82v109h-109v-87q0 -160 -120 -228h-213
v61h201v256h-311v-100h202v-59h-200v-260h333v31z" />
    <glyph glyph-name="Identity.286" horiz-adv-x="850" 
d="M77 733v-101h262q-22 -86 -105.5 -164t-216.5 -131l71 -76q170 67 269.5 187.5t112.5 284.5h-393zM769 290v498h-104v-128h-206v-100h206v-68h-206v-99h206v-103h104zM764 261q-71 -6 -146 -3q-56 7 -106 28l-35 -78q46 -30 131 -43q73 -5 156 3v93zM844 135h-402v-90h61
q-30 -32 -30 -72q-1 -63 45 -102.5t118 -40.5q71 -1 116.5 39.5t46.5 104.5q0 45 -30 71h75v90zM470 -54h-223v59h182v248h-295v-97h186v-57h-184v-254h334v101zM693 -26q0 -21 -17.5 -36.5t-41.5 -14.5q-23 1 -38.5 15t-15.5 36q0 25 16 39t41 13q24 -1 40 -15t16 -37z" />
    <glyph glyph-name="Identity.287" horiz-adv-x="850" 
d="M77 733v-101h262q-22 -86 -105.5 -164t-216.5 -131l71 -76q170 67 269.5 187.5t112.5 284.5h-393zM771 269v519h-104v-139h-209v-100h209v-68h-209v-99h209v-113h104zM628 39q93 89 118 182h-476v-100h290q-61 -65 -156 -117t-206 -77l68 -86q139 31 273 125l235 -131
l64 84z" />
    <glyph glyph-name="Identity.288" horiz-adv-x="850" 
d="M77 733v-101h262q-22 -86 -105.5 -164t-216.5 -131l71 -76q170 67 269.5 187.5t112.5 284.5h-393zM769 290v498h-104v-128h-206v-100h206v-68h-206v-99h206v-95q-109 -3 -194 2q-52 5 -106 28l-34 -84q44 -34 129 -45q105 -6 214 0v91h95zM642 9q82 69 119 158h-485v-96
h278q-126 -104 -348 -145l66 -87q145 27 273 103l233 -103l70 80z" />
    <glyph glyph-name="Identity.289" horiz-adv-x="850" 
d="M79 723v-101h262q-23 -88 -106.5 -170.5t-215.5 -134.5l71 -76q145 58 240 159t128 236v-87h209v-68h-209v-99h209v-113h104v519h-104v-139h-207q9 34 12 74h-393zM775 -46h-96v158h86v100h-524v-100h87v-158h-96v-101h543v101zM436 -46v158h135v-158h-135z" />
    <glyph glyph-name="Identity.290" 
d="M97 723v-101h236q-55 -212 -296 -305l71 -79q230 90 315 309h124v-73h-150v-100h150v-139h103v532h-103v-120h-95q5 24 11 76h-366zM843 220v569h-106v-569h106zM803 180h-490v-101h383v-246h107v347z" />
    <glyph glyph-name="Identity.291" 
d="M97 723v-101h236q-55 -212 -296 -305l71 -79q230 90 315 309h124v-73h-150v-100h150v-139h103v532h-103v-120h-95q5 24 11 76h-366zM843 220v569h-106v-569h106zM811 -50h-390v138h380v100h-488v-339h498v101z" />
    <glyph glyph-name="Identity.292" 
d="M97 723v-101h236q-55 -212 -296 -305l71 -79q230 90 315 309h124v-73h-150v-100h150v-139h103v532h-103v-120h-95q5 24 11 76h-366zM843 220v569h-106v-569h106zM810 196h-478v-345h478v345zM442 -49v144h260v-144h-260z" />
    <glyph glyph-name="Identity.293" 
d="M97 723v-101h236q-55 -212 -296 -305l71 -79q230 90 315 309h124v-73h-150v-100h150v-139h103v532h-103v-120h-95q5 24 11 76h-366zM843 220v569h-106v-569h106zM722 78q7 33 8 67v57h-111v-54q0 -51 -22.5 -98.5t-63.5 -78.5l-95 95q6 17 11 79v57h-113v-54
q0 -71 -44.5 -131.5t-130.5 -86.5l72 -87q104 45 155 121l136 -127q44 14 86.5 50t70.5 87l150 -126l71 75z" />
    <glyph glyph-name="Identity.294" 
d="M97 723v-101h236q-55 -212 -296 -305l71 -79q184 71 279 232v-86h160v-119h103v503h-103v-121h-95q5 24 11 76h-366zM423 547h124v-63h-153q18 36 29 63zM843 211v578h-106v-578h106zM793 37q0 87 -67.5 144.5t-161.5 57.5q-93 0 -160.5 -58.5t-67.5 -144.5t65.5 -145.5
t163.5 -59.5q95 0 161.5 60.5t66.5 145.5zM683 35q0 -46 -33.5 -75t-84.5 -29q-53 0 -86.5 30.5t-33.5 75.5q0 43 35 73t84 30q51 0 85 -29.5t34 -75.5z" />
    <glyph glyph-name="Identity.295" 
d="M189 771v-99h390q0 -135 -35 -248h112q32 134 32 347h-499zM874 402h-428v169h-108v-169h-324v-100h860v100zM748 237h-265v-103h157v-290h108v393zM498 -53h-245v46h211v244h-322v-100h213v-47h-211v-246h354v103z" />
    <glyph glyph-name="Identity.296" 
d="M189 771v-99h390q0 -135 -35 -248h112q32 134 32 347h-499zM874 402h-428v169h-108v-169h-324v-100h860v100zM751 238h-106v-118h-92v118h-106v-393h304v393zM432 -53h-208v48h190v243h-302v-100h193v-47h-191v-247h318v103zM553 -55v75h92v-75h-92z" />
    <glyph glyph-name="Identity.297" 
d="M189 771v-99h390q0 -135 -35 -248h112q32 134 32 347h-499zM874 402h-428v169h-108v-169h-324v-100h860v100zM594 -54v191h38v-191h-38zM488 -54h-251v47h190v243h-302v-99h192v-47h-191v-246h662v102h-50v191h41v100h-331v-100h40v-191z" />
    <glyph glyph-name="Identity.298" 
d="M694 763h-498v-100h389q0 -127 -34 -247h111q32 137 32 347zM881 294v98h-436v169h-106v-169h-325v-98h867zM625 256q-112 -5 -223 0q-54 6 -107 25l-34 -71q51 -33 130 -43q125 -5 234 0v89zM578 -3q79 65 118 147h-482v-94h269q-118 -93 -340 -131l73 -86
q142 24 267 98l233 -98l68 82z" />
    <glyph glyph-name="Identity.299" 
d="M189 771v-99h390q0 -135 -35 -248h112q32 134 32 347h-499zM874 402h-428v169h-108v-169h-324v-100h860v100zM692 95h-371v53h382v101h-488v-405h498v99h-392v52h371v100z" />
    <glyph glyph-name="Identity.300" 
d="M192 760v-100h391q0 -50 -9 -130.5t-27 -139.5h112q33 138 33 370h-500zM877 261v95h-427v173h-107v-173h-329v-95h863zM712 -48h-105v132h96v100h-530v-100h96v-132h-104v-101h547v101zM376 -48v132h124v-132h-124z" />
    <glyph glyph-name="Identity.301" 
d="M694 763h-498v-100h389q0 -127 -34 -247h111q32 137 32 347zM881 294v98h-436v169h-106v-169h-325v-98h277l-31 -73q53 -34 129 -44q143 -5 238 0v93q-114 -3 -227 0q-47 5 -93 24h574zM761 154h-605v-98h126q-28 -33 -28 -72q0 -75 60 -118t145 -43q86 0 146 43.5
t60 120.5q0 35 -22 68h118v99zM551 -16q0 -31 -28 -48.5t-65 -17.5t-64.5 17.5t-27.5 48.5q0 32 27.5 49.5t63.5 17.5q38 0 66 -17.5t28 -49.5z" />
    <glyph glyph-name="Identity.302" horiz-adv-x="920" 
d="M90 723v-101h316q-1 -120 -41 -235h112q25 80 32.5 147t7.5 189h-427zM627 265v97q-70 -16 -170.5 -23.5t-161.5 -7.5v190h-106v-190h-187v-97h192q52 0 95.5 0.5t82.5 3l62.5 4t57.5 5.5t45.5 5t47 6.5t42.5 6.5zM913 553h-154v235h-107v-565h107v227h154v103zM740 -50
h-390v138h380v100h-488v-339h498v101z" />
    <glyph glyph-name="Identity.303" horiz-adv-x="920" 
d="M90 723v-101h316q-1 -120 -41 -235h112q25 80 32.5 147t7.5 189h-427zM627 265v97q-70 -16 -170.5 -23.5t-161.5 -7.5v190h-106v-190h-187v-97h192q52 0 95.5 0.5t82.5 3l62.5 4t57.5 5.5t45.5 5t47 6.5t42.5 6.5zM913 553h-154v235h-107v-565h107v227h154v103zM309 -28
l136 -134q49 23 92.5 60t63.5 80l151 -136l68 74l-181 166q5 19 10 62v45h-109v-24q0 -143 -81 -198l-104 106q5 23 11 71v45h-109v-33q-1 -78 -45 -138.5t-131 -87.5l69 -88q116 54 159 130z" />
    <glyph glyph-name="Identity.304" horiz-adv-x="920" 
d="M71 704v-101h270q-5 -118 -41 -231h111q24 81 32 147t8 185h-380zM836 788h-106v-240h-89v219h-106v-534h106v215h89v-231h106v571zM513 352q-143 -28 -274 -28v172h-105v-172h-147v-98h161q52 0 96.5 1t72 2.5t61.5 5.5t46 6l46.5 8t42.5 7v96zM810 173h-504v-101h394
v-239h110v340z" />
    <glyph glyph-name="Identity.305" horiz-adv-x="920" 
d="M71 704v-101h270q-5 -118 -41 -231h111q24 81 32 147t8 185h-380zM836 788h-106v-240h-89v219h-106v-534h106v215h89v-231h106v571zM513 352q-143 -28 -274 -28v172h-105v-172h-147v-98h161q52 0 96.5 1t72 2.5t61.5 5.5t46 6l46.5 8t42.5 7v96zM790 -50h-390v138h380
v100h-488v-339h498v101z" />
    <glyph glyph-name="Identity.306" horiz-adv-x="920" 
d="M445 729h-383v-99h272q0 -61 -8.5 -107t-31.5 -115h110q24 86 32 147t9 174zM831 788h-105v-216h-85v195h-105v-473h105v178h85v-186h105v502zM505 404q-137 -26 -257 -29v161h-107v-161h-145v-98h164q174 0 345 29v98zM805 239h-295v-395h295v395zM490 -53h-193v47h180
v244h-292v-99h184v-48h-182v-247h303v103zM618 -57v196h79v-196h-79z" />
    <glyph glyph-name="Identity.307" horiz-adv-x="920" 
d="M71 704v-101h270q-5 -118 -41 -231h111q24 81 32 147t8 185h-380zM836 788h-106v-240h-89v219h-106v-534h106v215h89v-231h106v571zM513 352q-143 -28 -274 -28v172h-105v-172h-147v-98h161q52 0 96.5 1t72 2.5t61.5 5.5t46 6l46.5 8t42.5 7v96zM792 184h-488v-333h488
v333zM413 -49v133h271v-133h-271z" />
    <glyph glyph-name="Identity.308" horiz-adv-x="920" 
d="M71 704v-101h270q-5 -118 -41 -231h111q24 81 32 147t8 185h-380zM836 788h-105v-237h-85v216h-105v-507h105v190h85v-219h105v557zM513 352q-143 -28 -274 -28v142h-105v-142h-147v-98h161q52 0 96.5 1t72 2.5t61.5 5.5t46 6l46.5 8t42.5 7v96zM573 91q17 45 17 86v34
h-114v-6q0 -87 -64 -164.5t-182 -115.5l71 -83q139 44 221 158l242 -161l68 79z" />
    <glyph glyph-name="Identity.309" horiz-adv-x="870" 
d="M90 723v-101h316q-1 -120 -41 -235h112q25 80 32.5 147t7.5 189h-427zM779 788h-106v-565h106v565zM634 369q-165 -30 -343 -30v172h-106v-172h-177v-100h198q213 0 428 31v99zM770 -50h-390v138h380v100h-488v-339h498v101z" />
    <glyph glyph-name="Identity.310" horiz-adv-x="870" 
d="M89 733v-101h316q-1 -120 -41 -210h112q25 77 32.5 136t7.5 175h-427zM779 788h-106v-514h106v514zM627 409q-165 -30 -336 -30v162h-106v-162h-185v-96h206q231 0 421 31v95zM760 239h-295v-395h295v395zM445 -53h-193v47h180v244h-292v-99h184v-48h-182v-247h303v103z
M573 -57v196h79v-196h-79z" />
    <glyph glyph-name="Identity.311" horiz-adv-x="870" 
d="M90 723v-101h316q-1 -120 -41 -235h112q25 80 32.5 147t7.5 189h-427zM779 788h-106v-565h106v565zM634 369q-165 -30 -343 -30v172h-106v-172h-177v-100h198q213 0 428 31v99zM326 -28l136 -134q49 23 92.5 60t63.5 80l151 -136l68 74l-181 166q5 19 10 62v35h-109v-14
q0 -143 -81 -198l-104 106q5 23 11 71v35h-109v-23q-1 -78 -45 -138.5t-131 -87.5l69 -88q116 54 159 130z" />
    <glyph glyph-name="Identity.312" 
d="M192 760v-100h391q0 -50 -9 -130.5t-27 -139.5h112q33 138 33 370h-500zM876 248v96h-352v190h-107v-190h-70v190h-107v-190h-225v-96h861zM693 178h-494v-101h388v-234h106v335z" />
    <glyph glyph-name="Identity.313" 
d="M192 760v-100h391q0 -50 -9 -130.5t-27 -139.5h112q33 138 33 370h-500zM876 248v96h-352v190h-107v-190h-70v190h-107v-190h-225v-96h861zM700 -50h-390v138h380v100h-488v-339h498v101z" />
    <glyph glyph-name="Identity.314" 
d="M192 760v-100h391q0 -50 -9 -130.5t-27 -139.5h112q33 138 33 370h-500zM876 248v96h-352v190h-107v-190h-70v190h-107v-190h-225v-96h861zM688 184h-488v-333h488v333zM309 -49v133h271v-133h-271z" />
    <glyph glyph-name="Identity.315" 
d="M192 760v-100h391q0 -50 -9 -130.5t-27 -139.5h112q33 138 33 370h-500zM876 248v96h-352v190h-107v-190h-70v190h-107v-190h-225v-96h861zM683 28q0 89 -67.5 144t-169.5 55q-100 0 -166 -55.5t-66 -144.5q0 -87 67.5 -142t164.5 -55q103 0 170 56t67 142zM573 30
q0 -48 -35 -74.5t-92 -26.5q-52 0 -88 28t-36 73q0 47 35 75t89 28t90.5 -28.5t36.5 -74.5z" />
    <glyph glyph-name="Identity.316" 
d="M190 762v-102h382q-4 -126 -40 -233h-517v-98h374v-92h-257v-100h203v-48h-201v-245h328v28l22 -27q74 23 132 118l118 -122l76 71l-151 159q9 39 9 83v83h-111v-84q0 -62 -26 -117.5t-81 -88.5h-206v46h200v189h50v147h387v98h-238q40 154 40 335h-493z" />
    <glyph glyph-name="Identity.317" 
d="M190 762v-102h382q-4 -126 -40 -233h-517v-98h374v-62q-56 8 -94 24l-34 -71q51 -33 130 -43q125 -5 234 0v89q-48 -4 -131 -2v65h387v98h-238q40 154 40 335h-493zM578 -3q79 65 118 147h-482v-94h269q-118 -93 -340 -131l73 -86q142 24 267 98l233 -98l68 82z" />
    <glyph glyph-name="Identity.318" 
d="M377 194h-204v-100h96v-132h-104v-101h547v101h-105v132h96v100h-219v121h392v98h-217q31 157 32 336h-497v-99h387q0 -110 -30 -237h-537v-98h363v-121zM376 -38v132h124v-132h-124z" />
    <glyph glyph-name="Identity.319" horiz-adv-x="870" 
d="M112 743v-99h312q-5 -128 -29 -195q-61 -4 -151 -4h-227v-97h220v-146h106v148q128 3 298 28v101q-68 -15 -132 -20q26 95 26 284h-423zM786 788h-104v-463h-204v-97h204v-33h104v593zM785 -50h-390v106h380v100h-488v-307h498v101z" />
    <glyph glyph-name="Identity.320" horiz-adv-x="870" 
d="M540 733h-422v-97h314q0 -90 -24 -175q-63 -4 -155 -4h-227v-96h210v-126h106v128q128 3 308 29v101q-60 -14 -132 -22q22 98 22 262zM795 788h-104v-429h-204v-95h204v-27h104v551zM770 212h-109v-87h-260v87h-108v-366h477v366zM401 -54v78h260v-78h-260z" />
    <glyph glyph-name="Identity.321" horiz-adv-x="870" 
d="M112 743v-99h312q-5 -129 -29 -197q-61 -4 -151 -4h-227v-97h220v-146h106v148q128 3 298 28v101q-67 -14 -132 -20q26 97 26 286h-423zM786 788h-104v-452h-204v-97h204v-36h104v585zM550 91q17 45 17 86v24h-112v-6q0 -86 -64.5 -159.5t-186.5 -110.5l74 -83
q139 44 221 158l239 -161l70 79z" />
    <glyph glyph-name="Identity.322" horiz-adv-x="920" 
d="M445 719h-383v-99h272q0 -92 -28 -183q-58 -3 -141 -3h-165v-97h172v-139h105v142q58 2 95 6t83 12t60 10l-1 100q-51 -13 -97 -19q27 108 28 270zM820 193v596h-106v-596h106zM640 202v565h-106v-441h-176v-97h176v-27h106zM790 165h-490v-102h383v-219h107v321z" />
    <glyph glyph-name="Identity.323" horiz-adv-x="920" 
d="M445 719h-383v-99h272q0 -92 -28 -183q-58 -3 -140 -3h-166v-97h173v-157h105v159q57 2 95 6.5t80.5 12t61.5 10.5v100q-51 -13 -98 -19q27 108 28 270zM821 122v667h-106v-667h106zM641 143v624h-106v-446h-176v-98h176v-80h106zM822 -45h-381v183h-107v-285h488v102z
" />
    <glyph glyph-name="Identity.324" horiz-adv-x="920" 
d="M445 719h-383v-99h272q0 -92 -28 -183q-58 -3 -141 -3h-165v-97h172v-139h105v142q58 2 95 6t83 12t60 10l-1 100q-51 -13 -97 -19q27 108 28 270zM820 193v596h-106v-596h106zM640 202v565h-106v-441h-176v-97h176v-27h106zM815 -50h-390v116h380v100h-488v-317h498v101
z" />
    <glyph glyph-name="Identity.325" horiz-adv-x="920" 
d="M445 755h-383v-100h272q0 -88 -27 -178q-58 -3 -142 -3h-165v-96h172v-128h105v131q57 2 95.5 6t80 11t61.5 10v101q-52 -12 -96 -19q27 105 27 265zM821 245v543h-106v-543h106zM640 255v512h-106v-402h-176v-92h176v-18h106zM818 -53h-379v40h359v236h-474v-99h365v-39
h-360v-241h489v103z" />
    <glyph glyph-name="Identity.326" horiz-adv-x="920" 
d="M445 719h-383v-99h272q0 -92 -28 -183q-58 -3 -141 -3h-165v-97h172v-139h105v142q58 2 95 6t83 12t60 10l-1 100q-51 -13 -97 -19q27 108 28 270zM820 193v596h-106v-596h106zM640 202v565h-106v-441h-176v-97h176v-27h106zM797 169h-488v-318h488v318zM418 -49v118h271
v-118h-271z" />
    <glyph glyph-name="Identity.327" horiz-adv-x="920" 
d="M445 755h-383v-100h272q0 -88 -27 -178q-58 -3 -142 -3h-165v-96h172v-128h105v131q57 2 95.5 6t80 11t61.5 10v101q-52 -12 -96 -19q27 105 27 265zM821 245v543h-106v-543h106zM640 255v512h-106v-402h-176v-92h176v-18h106zM796 212h-109v-87h-260v87h-108v-366h477
v366zM427 -54v78h260v-78h-260z" />
    <glyph glyph-name="Identity.328" horiz-adv-x="920" 
d="M445 719h-383v-99h272q0 -92 -28 -183q-58 -3 -141 -3h-165v-97h172v-139h105v142q58 2 95 6t83 12t60 10l-1 100q-51 -13 -97 -19q27 108 28 270zM820 193v596h-106v-596h106zM640 202v565h-106v-441h-176v-97h176v-27h106zM377 -28l136 -134q49 23 92.5 60t63.5 80
l151 -136l68 74l-181 166q5 19 10 62v25h-109v-4q0 -143 -81 -198l-104 106l11 71v25h-109v-13q-1 -78 -45 -138.5t-131 -87.5l69 -88q116 54 159 130z" />
    <glyph glyph-name="Identity.329" horiz-adv-x="920" 
d="M445 719h-383v-99h272q0 -82 -22 -163q-55 -4 -150 -4h-155v-98h178v-154h105v157q38 2 70 5t49.5 6l48.5 8.5l49 8.5v101q-57 -13 -85 -17q22 96 23 249zM641 767h-105v-429h-179v-90h179v-20h105v539zM820 788h-106v-591h106v591zM789 19q0 83 -67 133t-169 50
q-101 0 -167 -50t-66 -134q0 -82 67.5 -132.5t165.5 -50.5q103 0 169.5 51.5t66.5 132.5zM679 19q0 -45 -35.5 -69t-90.5 -24t-90 25t-35 68q0 44 35.5 68.5t89.5 24.5t90 -25t36 -68z" />
    <glyph glyph-name="Identity.330" horiz-adv-x="870" 
d="M112 743v-99h312q-5 -132 -33 -208q-65 -3 -138 -3h-227v-97h210v-141h107v142q131 3 316 29v101q-78 -16 -154 -23q30 104 30 299h-423zM785 788h-104v-586h104v586zM785 -50h-390v106h380v100h-488v-307h498v101z" />
    <glyph glyph-name="Identity.331" horiz-adv-x="870" 
d="M540 733h-422v-97h314q0 -94 -26 -180q-69 -3 -149 -3h-227v-98h206v-116h106v117q141 3 321 30v101q-74 -16 -147 -23q24 104 24 269zM789 788h-104v-534h104v534zM779 221h-295v-377h295v377zM464 -53h-193v41h180v232h-292v-98h184v-41h-182v-237h303v103zM592 -57
v178h79v-178h-79z" />
    <glyph glyph-name="Identity.332" horiz-adv-x="870" 
d="M112 743v-99h312q-5 -132 -33 -208q-65 -3 -138 -3h-227v-97h210v-141h107v142q131 3 316 29v101q-78 -16 -154 -23q30 104 30 299h-423zM785 788h-104v-586h104v586zM679 73q6 32 8 72v17h-110v-14q0 -51 -21.5 -99.5t-59.5 -79.5l-102 97q6 17 11 79v17h-111v-14
q0 -70 -44 -131.5t-126 -88.5l68 -83q106 46 155 123l136 -132q106 46 155 135l146 -121l70 75z" />
    <glyph glyph-name="Identity.333" horiz-adv-x="870" 
d="M112 743v-99h312q-5 -132 -33 -208q-65 -3 -138 -3h-227v-97h210v-141h107v142q131 3 316 29v101q-78 -16 -154 -23q30 104 30 299h-423zM785 788h-104v-580h104v580zM782 16q0 86 -67 137.5t-169 51.5q-101 0 -167 -52t-66 -138q0 -85 67.5 -137t165.5 -52
q103 0 169.5 53t66.5 137zM672 16q0 -46 -35.5 -71t-90.5 -25t-90 26t-35 70q0 45 35.5 70.5t89.5 25.5t90 -26t36 -70z" />
    <glyph glyph-name="Identity.334" 
d="M691 749h-497v-99h387q0 -121 -34 -253h-532v-99h244v-120h-60v-101h388v-234h106v335h-67v120h250v99h-220q34 169 35 352zM522 178h-159v120h159v-120z" />
    <glyph glyph-name="Identity.335" 
d="M190 762v-102h382q-4 -129 -41 -236h-511v-99h251v-88h-139v-100h203v-48h-201v-245h328v28l22 -27q74 23 132 118l118 -122l76 71l-151 159q9 39 9 83v83h-43v88h247v99h-230q41 154 41 338h-493zM557 203v-50q0 -62 -26 -117.5t-81 -88.5h-206v46h200v244h-66v88h141
v-122h38z" />
    <glyph glyph-name="Identity.336" 
d="M691 749h-497v-99h387q0 -121 -34 -253h-532v-99h244v-114h-59v-333h488v333h-62v114h250v99h-220q34 169 35 352zM522 184h-159v114h159v-114zM309 -49v133h271v-133h-271z" />
    <glyph glyph-name="Identity.337" 
d="M190 762v-102h382q-4 -129 -41 -236h-511v-99h251v-96h-66v-383h486v383h-66v96h247v99h-230q41 154 41 338h-493zM583 203v-68h-270v73h65v117h141v-122h64zM313 -54v88h270v-88h-270z" />
    <glyph glyph-name="Identity.338" 
d="M691 749h-497v-99h387q0 -121 -34 -253h-532v-99h244v-190h104v190h159v-190h104v190h250v99h-220q34 169 35 352zM492 94q14 39 14 76v38h-115v-26q0 -80 -65.5 -149t-186.5 -106l72 -85q147 46 229 158l247 -163l72 81z" />
    <glyph glyph-name="Identity.339" 
d="M691 749h-497v-99h387q0 -121 -34 -253h-532v-99h244v-149q-45 -50 -45 -122q0 -87 67.5 -142t164.5 -55q103 0 170 56t67 142q0 78 -57 133v137h250v99h-220q34 169 35 352zM522 216q-38 11 -76 11q-42 0 -83 -13v84h159v-82zM361 108h2q33 25 83 25q44 0 76 -20v-5h9
q42 -29 42 -78q0 -48 -35 -74.5t-92 -26.5q-52 0 -88 28t-36 73q0 50 39 78z" />
    <glyph glyph-name="Identity.340" 
d="M190 762v-102h382q-4 -135 -45 -247h-512v-97h862v97h-238q44 160 44 349h-493zM450 -101q43 -70 151 -72q72 -1 119.5 36t48.5 102q0 54 -42 79h82v91h-419v-91h89q-19 -12 -32.5 -34.5t-13.5 -45.5v-9h-190v244h-108v-346h315v46zM726 259q-78 -7 -143 -3
q-57 6 -105 25l-36 -76q51 -33 131 -44q71 -5 153 3v95zM661 -30q-1 -23 -18.5 -37t-42.5 -13q-24 1 -40.5 15.5t-17.5 36.5q-1 24 15.5 39.5t44.5 15.5t44 -16t15 -41z" />
    <glyph glyph-name="Identity.341" 
d="M190 762v-102h382q-4 -135 -45 -247h-512v-97h862v97h-238q44 160 44 349h-493zM752 237h-295v-393h295v393zM437 -53h-193v46h180v243h-292v-99h184v-47h-182v-246h303v103zM565 -57v194h79v-194h-79z" />
    <glyph glyph-name="Identity.342" 
d="M190 762v-102h382q-4 -135 -45 -247h-512v-97h862v97h-238q44 160 44 349h-493zM751 238h-106v-118h-92v118h-106v-393h304v393zM432 -53h-208v48h190v243h-302v-100h193v-47h-191v-247h318v103zM553 -55v75h92v-75h-92z" />
    <glyph glyph-name="Identity.343" 
d="M190 762v-102h382q-4 -135 -45 -247h-512v-97h862v97h-238q44 160 44 349h-493zM659 71q9 39 9 83v83h-111v-84q0 -62 -26 -117.5t-81 -88.5h-206v46h200v244h-312v-100h203v-48h-201v-245h328v28l22 -27q74 23 132 118l118 -122l76 71z" />
    <glyph glyph-name="Identity.344" 
d="M190 762v-102h382q-4 -135 -45 -247h-512v-97h862v97h-238q44 160 44 349h-493zM673 -30q-1 -23 -18.5 -37t-42.5 -13q-24 1 -40.5 15.5t-17.5 36.5q-1 24 15.5 39.5t44.5 15.5t44 -16t15 -41zM491 44q-19 -12 -32.5 -34.5t-13.5 -45.5q-1 -63 47.5 -99.5t120.5 -37.5
t119.5 36t48.5 102q0 54 -42 79h71v91h-389v-91h70zM737 259q-78 -7 -143 -3q-58 7 -105 25l-36 -76q48 -31 131 -44q78 -4 153 3v95zM445 -53h-217v45h179v244h-291v-99h183v-46h-181v-247h327v103z" />
    <glyph glyph-name="Identity.345" 
d="M190 762v-102h382q-4 -128 -42 -240h-510v-98h860v98h-239q42 159 42 342h-493zM564 48q92 89 117 176h-476v-99h279q-50 -56 -139 -105.5t-207 -78.5l67 -89q141 34 271 124l226 -126l68 85z" />
    <glyph glyph-name="Identity.346" 
d="M190 762v-102h382q-4 -135 -45 -247h-512v-97h862v97h-238q44 160 44 349h-493zM625 256q-112 -5 -223 0q-54 6 -107 25l-34 -71q51 -33 130 -43q125 -5 234 0v89zM578 -3q79 65 118 147h-482v-94h269q-118 -93 -340 -131l73 -86q142 24 267 98l233 -98l68 82z" />
    <glyph glyph-name="Identity.347" 
d="M190 762v-102h382q-4 -135 -45 -247h-512v-97h862v97h-238q44 160 44 349h-493zM692 95h-371v53h382v101h-488v-405h498v99h-392v52h371v100z" />
    <glyph glyph-name="Identity.348" 
d="M691 749h-497v-99h387q0 -122 -34 -254h-533v-98h862v98h-220q34 169 35 353zM732 -48h-105v132h96v100h-530v-100h96v-132h-104v-101h547v101zM396 -48v132h124v-132h-124z" />
    <glyph glyph-name="Identity.349" 
d="M190 762v-102h382q-4 -135 -45 -247h-512v-97h862v97h-238q44 160 44 349h-493zM627 280q-114 -3 -227 0q-54 6 -106 30l-34 -79q53 -34 129 -44q143 -5 238 0v93zM761 154h-605v-98h126q-28 -33 -28 -72q0 -75 60 -118t145 -43q86 0 146 43.5t60 120.5q0 35 -22 68h118
v99zM551 -16q0 -31 -28 -48.5t-65 -17.5t-64.5 17.5t-27.5 48.5q0 32 27.5 49.5t63.5 17.5q38 0 66 -17.5t28 -49.5z" />
    <glyph glyph-name="Identity.350" horiz-adv-x="870" 
d="M90 723v-101h316q-1 -120 -41 -235h112q25 80 32.5 147t7.5 189h-427zM637 272v101q-75 -17 -175 -26t-162 -9h-304v-97h176q269 0 465 31zM779 217v571h-106v-571h106zM757 173h-490v-101h383v-239h107v340z" />
    <glyph glyph-name="Identity.351" horiz-adv-x="870" 
d="M90 723v-101h316q-1 -120 -41 -235h112q25 80 32.5 147t7.5 189h-427zM779 114v675h-106v-675h106zM626 259l1 99q-161 -32 -318 -32h-313v-99h187q72 0 129.5 1.5t108.5 6l73 6.5t73 9.5t59 8.5zM771 -45h-391v213h-107v-315h498v102z" />
    <glyph glyph-name="Identity.352" horiz-adv-x="870" 
d="M89 733v-101h316q-1 -120 -41 -210h112q25 77 32.5 136t7.5 175h-427zM637 307v102q-172 -34 -328 -34h-313v-97h187q249 0 454 29zM778 788h-106v-504h106v504zM766 -156v103h-389v54h364v242h-480v-98h372v-48h-367v-253h500z" />
    <glyph glyph-name="Identity.353" horiz-adv-x="870" 
d="M89 733v-101h316q-1 -120 -41 -210h112q25 77 32.5 136t7.5 175h-427zM637 307v102q-172 -34 -328 -34h-313v-97h187q249 0 454 29zM778 788h-106v-504h106v504zM690 71q9 39 9 83v85h-111v-86q0 -62 -26 -117.5t-81 -88.5h-207v48h201v244h-312v-100h203v-48h-201v-247
h328v28l22 -27q74 23 132 118l118 -122l76 71z" />
    <glyph glyph-name="Identity.354" horiz-adv-x="870" 
d="M90 723v-101h316q-1 -120 -41 -235h112q25 80 32.5 147t7.5 189h-427zM637 272v101q-75 -17 -175 -26t-162 -9h-304v-97h176q269 0 465 31zM779 217v571h-106v-571h106zM747 184h-488v-333h488v333zM368 -49v133h271v-133h-271z" />
    <glyph glyph-name="Identity.355" horiz-adv-x="870" 
d="M89 733v-101h316q-1 -120 -41 -210h112q25 77 32.5 136t7.5 175h-427zM637 307v102q-172 -34 -328 -34h-313v-97h187q249 0 454 29zM778 788h-106v-504h106v504zM746 232h-109v-97h-260v97h-108v-386h477v386zM377 -54v88h260v-88h-260z" />
    <glyph glyph-name="Identity.356" horiz-adv-x="870" 
d="M90 723v-101h316q-1 -120 -41 -235h112q25 80 32.5 147t7.5 189h-427zM637 272v101q-75 -17 -175 -26t-162 -9h-304v-97h176q269 0 465 31zM779 217v571h-106v-571h106zM537 91q17 45 17 86v24h-112v-6q0 -86 -64.5 -159.5t-186.5 -110.5l74 -83q139 44 221 158l241 -163
l70 79z" />
    <glyph glyph-name="Identity.357" horiz-adv-x="870" 
d="M90 723v-101h316q-1 -120 -41 -235h112q25 80 32.5 147t7.5 189h-427zM637 272v101q-75 -17 -175 -26t-162 -9h-304v-97h176q269 0 465 31zM779 217v571h-106v-571h106zM759 24q0 86 -67.5 139.5t-168.5 53.5t-167 -53.5t-66 -140.5q0 -86 67.5 -139t165.5 -53
q102 0 169 54.5t67 138.5zM649 24q0 -46 -35.5 -72t-90.5 -26q-54 0 -89.5 27t-35.5 71q0 45 35.5 72t89.5 27t90 -27t36 -72z" />
    <glyph glyph-name="Identity.358" horiz-adv-x="850" 
d="M77 733v-101h262q-22 -86 -105.5 -164t-216.5 -131l71 -76q170 67 269.5 187.5t112.5 284.5h-393zM769 310v479h-104v-479h104zM768 263h-270v-103h161v-316h109v419zM532 -53h-257v60h207v256h-321v-100h212v-57h-207v-262h366v103z" />
    <glyph glyph-name="Identity.359" horiz-adv-x="850" 
d="M77 733v-101h262q-22 -86 -105.5 -164t-216.5 -131l71 -76q170 67 269.5 187.5t112.5 284.5h-393zM769 310v479h-104v-479h104zM528 -150q77 25 137 118l123 -128l74 74l-151 156q11 41 11 82v109h-109v-87q0 -160 -120 -228h-213v61h201v256h-311v-100h202v-59h-200
v-260h333v31z" />
    <glyph glyph-name="Identity.360" horiz-adv-x="850" 
d="M79 723v-101h262q-23 -88 -106.5 -170.5t-215.5 -134.5l71 -76q168 67 268.5 191.5t113.5 290.5h-393zM665 227h104v562h-104v-562zM701 78q7 33 8 67v49h-111v-46q0 -51 -22.5 -98.5t-63.5 -78.5l-95 95q6 17 11 79v49h-113v-46q0 -71 -44.5 -131.5t-130.5 -86.5l72 -87
q104 45 155 121l136 -127q44 14 86.5 50t70.5 87l150 -126l71 75z" />
    <glyph glyph-name="Identity.361" horiz-adv-x="850" 
d="M77 733v-101h262q-22 -86 -105.5 -164t-216.5 -131l71 -76q170 67 269.5 187.5t112.5 284.5h-393zM769 310v479h-104v-479h104zM674 299q-119 -3 -203 1q-52 5 -106 28l-34 -84q44 -34 129 -45q105 -6 214 0v100zM642 9q82 69 119 158h-485v-96h278q-126 -104 -348 -145
l66 -87q145 27 273 103l233 -103l70 80z" />
    <glyph glyph-name="Identity.362" horiz-adv-x="850" 
d="M77 733v-101h262q-22 -86 -105.5 -164t-216.5 -131l71 -76q170 67 269.5 187.5t112.5 284.5h-393zM769 310v479h-104v-479h104zM750 110h-360v54h371v100h-478v-409h486v99h-379v54h360v102z" />
    </font>
</defs>
</svg>
